<svg width="242" height="47" viewBox="0 0 242 47" fill="none" xmlns="http://www.w3.org/2000/svg">
<g clip-path="url(#clip0_292_29970)">
<mask id="mask0_292_29970" style="mask-type:luminance" maskUnits="userSpaceOnUse" x="0" y="0" width="242" height="47">
<path d="M242 0H0V46.3898H242V0Z" fill="white"/>
</mask>
<g mask="url(#mask0_292_29970)">
<mask id="mask1_292_29970" style="mask-type:luminance" maskUnits="userSpaceOnUse" x="7" y="12" width="29" height="22">
<path d="M35.647 12.7197H7.68256V33.67H35.647V12.7197Z" fill="white"/>
</mask>
<g mask="url(#mask1_292_29970)">
<path d="M12.7513 33.6243V32.2339C12.7513 31.702 12.4154 31.3538 11.839 31.3538C11.5506 31.3538 11.2372 31.4455 11.0217 31.7479C10.8538 31.4942 10.6131 31.3538 10.2521 31.3538C10.0114 31.3538 9.77074 31.4239 9.58039 31.6777V31.3997H9.07668V33.6243H9.58039V32.3958C9.58039 32.0017 9.79587 31.8154 10.1317 31.8154C10.4676 31.8154 10.6355 32.0233 10.6355 32.3958V33.6243H11.1392V32.3958C11.1392 32.0017 11.38 31.8154 11.6906 31.8154C12.0264 31.8154 12.1944 32.0233 12.1944 32.3958V33.6243H12.7513ZM20.2238 31.3997H19.4066V30.7274H18.9028V31.3997H18.4466V31.8397H18.9028V32.8602C18.9028 33.3705 19.1183 33.6702 19.6948 33.6702C19.9104 33.6702 20.1511 33.6 20.3189 33.5082L20.1734 33.0897C20.0279 33.1815 19.86 33.2058 19.7397 33.2058C19.499 33.2058 19.4037 33.0655 19.4037 32.836V31.8397H20.221V31.3997H20.2238ZM24.5002 31.3511C24.2119 31.3511 24.0188 31.4915 23.8984 31.675V31.397H23.3947V33.6216H23.8984V32.3689C23.8984 31.999 24.0664 31.7884 24.3798 31.7884C24.475 31.7884 24.5953 31.8127 24.6933 31.8343L24.8388 31.37C24.7381 31.3511 24.5953 31.3511 24.5002 31.3511ZM18.038 31.5832C17.7973 31.4212 17.4615 31.3511 17.1005 31.3511C16.5239 31.3511 16.1405 31.6292 16.1405 32.0692C16.1405 32.4391 16.4288 32.6497 16.9326 32.7172L17.1732 32.7414C17.4363 32.7873 17.5819 32.8575 17.5819 32.9736C17.5819 33.1356 17.3887 33.2517 17.0529 33.2517C16.717 33.2517 16.4511 33.1356 16.2832 33.0195L16.0426 33.3894C16.3056 33.5757 16.6667 33.6675 17.0277 33.6675C17.6994 33.6675 18.0856 33.3651 18.0856 32.9494C18.0856 32.5552 17.7721 32.3473 17.2936 32.2771L17.0529 32.2528C16.8374 32.2285 16.6694 32.1826 16.6694 32.0449C16.6694 31.8828 16.8374 31.7912 17.1033 31.7912C17.3916 31.7912 17.6798 31.9072 17.8253 31.9774L18.038 31.5832ZM31.441 31.3511C31.1526 31.3511 30.9595 31.4915 30.8392 31.675V31.397H30.3354V33.6216H30.8392V32.3689C30.8392 31.999 31.0071 31.7884 31.3206 31.7884C31.4157 31.7884 31.5361 31.8127 31.634 31.8343L31.7796 31.3753C31.6816 31.3511 31.5389 31.3511 31.441 31.3511ZM25.004 32.512C25.004 33.1842 25.4854 33.6702 26.2298 33.6702C26.5656 33.6702 26.8063 33.6 27.047 33.4163L26.8063 33.0222C26.6132 33.1627 26.4228 33.2302 26.2046 33.2302C25.7959 33.2302 25.5077 32.952 25.5077 32.512C25.5077 32.0935 25.7959 31.8154 26.2046 31.7939C26.4201 31.7939 26.6132 31.8641 26.8063 32.0017L27.047 31.6075C26.8063 31.4212 26.5656 31.3538 26.2298 31.3538C25.4854 31.3511 25.004 31.8397 25.004 32.512ZM29.6637 32.512V31.3997H29.16V31.6777C28.992 31.4698 28.7514 31.3538 28.4379 31.3538C27.7886 31.3538 27.2849 31.8397 27.2849 32.512C27.2849 33.1842 27.7886 33.6702 28.4379 33.6702C28.7738 33.6702 29.0145 33.5541 29.16 33.3462V33.6243H29.6637V32.512ZM27.8138 32.512C27.8138 32.1178 28.0769 31.7939 28.5107 31.7939C28.9193 31.7939 29.2075 32.0962 29.2075 32.512C29.2075 32.9061 28.9193 33.2302 28.5107 33.2302C28.0796 33.2058 27.8138 32.9034 27.8138 32.512ZM21.7855 31.3511C21.1137 31.3511 20.6324 31.8154 20.6324 32.5093C20.6324 33.2058 21.1137 33.6675 21.8106 33.6675C22.1465 33.6675 22.4823 33.5757 22.7482 33.3651L22.5075 33.0168C22.3144 33.1572 22.0737 33.249 21.8358 33.249C21.5224 33.249 21.2117 33.1086 21.1389 32.7172H22.8434C22.8434 32.647 22.8434 32.601 22.8434 32.5308C22.8657 31.8154 22.4319 31.3511 21.7855 31.3511ZM21.7855 31.7695C22.0989 31.7695 22.3144 31.9558 22.362 32.3014H21.1614C21.2089 32.0017 21.4244 31.7695 21.7855 31.7695ZM34.3011 32.512V30.5195H33.7974V31.6777C33.6295 31.4698 33.3889 31.3538 33.0753 31.3538C32.426 31.3538 31.9223 31.8397 31.9223 32.512C31.9223 33.1842 32.426 33.6702 33.0753 33.6702C33.4112 33.6702 33.6519 33.5541 33.7974 33.3462V33.6243H34.3011V32.512ZM32.4512 32.512C32.4512 32.1178 32.7143 31.7939 33.1482 31.7939C33.5567 31.7939 33.845 32.0962 33.845 32.512C33.845 32.9061 33.5567 33.2302 33.1482 33.2302C32.7143 33.2058 32.4512 32.9034 32.4512 32.512ZM15.5864 32.512V31.3997H15.0826V31.6777C14.9147 31.4698 14.674 31.3538 14.3605 31.3538C13.7112 31.3538 13.2075 31.8397 13.2075 32.512C13.2075 33.1842 13.7112 33.6702 14.3605 33.6702C14.6963 33.6702 14.9371 33.5541 15.0826 33.3462V33.6243H15.5864V32.512ZM13.7141 32.512C13.7141 32.1178 13.9771 31.7939 14.4109 31.7939C14.8195 31.7939 15.1077 32.0962 15.1077 32.512C15.1077 32.9061 14.8195 33.2302 14.4109 33.2302C13.9771 33.2058 13.7141 32.9034 13.7141 32.512Z" fill="black"/>
<path d="M25.4372 14.5044H17.8695V27.6199H25.4372V14.5044Z" fill="#FF5A00"/>
<path d="M18.3735 21.0621C18.3735 18.3973 19.6721 16.0323 21.6648 14.5043C20.1983 13.392 18.3483 12.7197 16.3305 12.7197C11.5503 12.7197 7.68256 16.4509 7.68256 21.0621C7.68256 25.6733 11.5503 29.4044 16.3305 29.4044C18.3483 29.4044 20.1983 28.7321 21.6648 27.6197C19.6693 26.1133 18.3735 23.7267 18.3735 21.0621Z" fill="#EB001B"/>
<path d="M35.647 21.0621C35.647 25.6733 31.7793 29.4044 26.9991 29.4044C24.9811 29.4044 23.1313 28.7321 21.6647 27.6197C23.6826 26.089 24.956 23.7267 24.956 21.0621C24.956 18.3973 23.6575 16.0323 21.6647 14.5043C23.1285 13.392 24.9784 12.7197 26.9962 12.7197C31.7793 12.7197 35.647 16.4751 35.647 21.0621Z" fill="#F79E1B"/>
</g>
<mask id="mask2_292_29970" style="mask-type:luminance" maskUnits="userSpaceOnUse" x="44" y="15" width="47" height="16">
<path d="M90.9619 15.7129H44.8664V30.6773H90.9619V15.7129Z" fill="white"/>
</mask>
<g mask="url(#mask2_292_29970)">
<path d="M74.8831 15.7358C71.6134 15.7358 68.6915 17.4303 68.6915 20.5611C68.6915 24.1515 73.8736 24.3994 73.8736 26.2031C73.8736 26.9626 73.0032 27.6425 71.5164 27.6425C69.4065 27.6425 67.8296 26.6925 67.8296 26.6925L67.1549 29.8517C67.1549 29.8517 68.9715 30.6542 71.3833 30.6542C74.9581 30.6542 77.7708 28.8764 77.7708 25.6922C77.7708 21.8983 72.5673 21.6577 72.5673 19.9836C72.5673 19.3886 73.2819 18.7367 74.7643 18.7367C76.437 18.7367 77.8017 19.4276 77.8017 19.4276L78.462 16.3763C78.462 16.3763 76.9767 15.7358 74.8831 15.7358ZM44.9687 15.9661L44.8896 16.4267C44.8896 16.4267 46.2652 16.6784 47.5041 17.1805C49.0993 17.7563 49.2129 18.0914 49.4816 19.1325L52.4092 30.4167H56.3335L62.3793 15.9661H58.464L54.5791 25.7911L52.9939 17.4629C52.8485 16.5098 52.1121 15.9661 51.2108 15.9661H44.9687ZM63.9537 15.9661L60.8823 30.4167H64.6159L67.6767 15.9661H63.9537ZM84.7779 15.9661C83.8772 15.9661 83.4002 16.4481 83.0507 17.2903L77.5806 30.4167H81.4959L82.2528 28.229H87.0232L87.484 30.4167H90.9393L87.9255 15.9661H84.7779ZM85.2867 19.8702L86.448 25.2928H83.3375L85.2867 19.8702Z" fill="#1434CB"/>
</g>
<path d="M179.311 14.2163H100.18V32.1736H179.311V14.2163Z" fill="#FC3131"/>
<mask id="mask3_292_29970" style="mask-type:luminance" maskUnits="userSpaceOnUse" x="104" y="18" width="73" height="10">
<path d="M176.237 18.7056H104.021V27.6842H176.237V18.7056Z" fill="white"/>
</mask>
<g mask="url(#mask3_292_29970)">
<mask id="mask4_292_29970" style="mask-type:luminance" maskUnits="userSpaceOnUse" x="104" y="18" width="73" height="10">
<path d="M176.237 18.7056H104.021V27.6842H176.237V18.7056Z" fill="white"/>
</mask>
<g mask="url(#mask4_292_29970)">
<path fill-rule="evenodd" clip-rule="evenodd" d="M105.643 20.178L104.021 20.7565V27.684H105.628L105.643 25.1069C106.029 25.5651 106.559 25.9559 107.422 25.9559C108.771 25.9559 110.021 24.919 110.021 23.0256C110.021 21.1096 108.756 20.0728 107.422 20.0728C106.582 20.0728 106.037 20.4635 105.643 20.9895V20.178ZM107.006 21.4402C107.763 21.4402 108.4 22.0639 108.4 23.0031C108.4 23.9724 107.763 24.5884 107.006 24.5884C106.249 24.5884 105.62 23.9648 105.62 23.0256C105.62 22.0639 106.249 21.4402 107.006 21.4402Z" fill="white"/>
<path d="M117.255 20.1781H118.876V21.1023C119.209 20.3209 119.739 20.1255 120.701 20.1706V21.5531H120.618C119.543 21.5531 118.883 22.4022 118.883 23.7546V25.8508H117.263V20.1781H117.255Z" fill="white"/>
<path d="M122.193 24.2355V21.5533H121.512V20.1783H122.193V19.2917L123.814 18.7056V20.1783H125.155V21.5533H123.814V23.9726C123.814 24.3408 123.973 24.5211 124.337 24.5211C124.632 24.5211 124.905 24.446 125.14 24.3183V25.6105C124.799 25.8134 124.405 25.9411 123.859 25.9411C122.86 25.9411 122.193 25.5504 122.193 24.2355Z" fill="white"/>
<path d="M125.851 20.178H127.472V20.9819C127.843 20.5086 128.335 20.0728 129.154 20.0728C129.903 20.0728 130.464 20.4034 130.759 20.9744C131.259 20.3959 131.857 20.0728 132.637 20.0728C133.842 20.0728 134.57 20.7941 134.57 22.154V25.8432H132.948V22.68C132.948 21.9211 132.607 21.5305 132.001 21.5305C131.395 21.5305 131.024 21.9211 131.024 22.68V25.8432H129.403V22.68C129.403 21.9211 129.062 21.5305 128.456 21.5305C127.85 21.5305 127.479 21.9211 127.479 22.68V25.8432H125.858V20.178H125.851Z" fill="white"/>
<path d="M141.644 20.1789H143.265V20.9829C143.637 20.5096 144.121 20.0737 144.939 20.0737C146.166 20.0737 146.878 20.8777 146.878 22.1775V25.8441H145.258V22.6809C145.258 21.9221 144.895 21.5313 144.281 21.5313C143.66 21.5313 143.265 21.9221 143.265 22.6809V25.8441H141.644V20.1789Z" fill="white"/>
<path fill-rule="evenodd" clip-rule="evenodd" d="M150.333 20.0654C148.666 20.0654 147.507 21.4029 147.507 23.0183C147.507 24.7765 148.779 25.9711 150.484 25.9636C151.249 25.9636 151.87 25.7457 152.355 25.3624C152.219 24.9718 151.893 24.0928 151.893 24.0928C151.446 24.4984 151.052 24.6712 150.506 24.6712C149.787 24.6712 149.271 24.2881 149.113 23.5593H153.089C153.105 23.4165 153.113 23.2662 153.113 23.1384C153.113 21.5381 152.241 20.0654 150.333 20.0654ZM150.333 21.3653C151.014 21.3653 151.438 21.8462 151.537 22.5675H149.097C149.227 21.8387 149.658 21.3653 150.333 21.3653Z" fill="white"/>
<path d="M155.604 23.0182C155.604 21.4028 156.854 20.0654 158.596 20.0654C159.392 20.0654 159.959 20.2833 160.422 20.644C160.3 20.9596 159.921 22.0114 159.921 22.0114C159.573 21.6809 159.233 21.4479 158.589 21.4479C157.778 21.4479 157.202 22.1542 157.202 23.0107C157.202 23.8748 157.771 24.5736 158.65 24.5736C159.194 24.5736 159.565 24.3406 159.959 23.9725C159.959 23.9725 160.376 25.122 160.46 25.3474C159.998 25.7231 159.421 25.9635 158.573 25.9635C156.862 25.9711 155.604 24.6562 155.604 23.0182Z" fill="#94A3B8"/>
<path d="M167.527 20.1789H169.149V20.9829C169.52 20.5096 170.012 20.0737 170.83 20.0737C171.58 20.0737 172.14 20.4043 172.435 20.9753C172.936 20.3968 173.534 20.0737 174.314 20.0737C175.518 20.0737 176.246 20.7951 176.246 22.1549V25.8441H174.625V22.6809C174.625 21.9221 174.284 21.5313 173.678 21.5313C173.073 21.5313 172.701 21.9221 172.701 22.6809V25.8441H171.08V22.6809C171.08 21.9221 170.739 21.5313 170.133 21.5313C169.528 21.5313 169.156 21.9221 169.156 22.6809V25.8441H167.534V20.1789H167.527Z" fill="#94A3B8"/>
<path d="M155.21 25.0695C155.21 25.5654 154.831 25.9635 154.354 25.9635C153.877 25.9635 153.498 25.5654 153.498 25.0695C153.498 24.5736 153.877 24.1753 154.354 24.1753C154.831 24.1753 155.21 24.5736 155.21 25.0695Z" fill="#94A3B8"/>
<path fill-rule="evenodd" clip-rule="evenodd" d="M110.566 23.0029C110.566 24.6483 111.914 25.9858 113.573 25.9858C115.24 25.9858 116.58 24.6483 116.58 23.0029C116.58 21.3574 115.232 20.02 113.573 20.02C111.914 20.02 110.566 21.3574 110.566 23.0029ZM112.142 23.0029C112.142 22.2215 112.786 21.5828 113.573 21.5828C114.368 21.5828 115.005 22.2215 115.005 23.0029C115.005 23.7843 114.361 24.423 113.573 24.423C112.786 24.423 112.142 23.7843 112.142 23.0029Z" fill="white"/>
<path fill-rule="evenodd" clip-rule="evenodd" d="M135.115 23.0029C135.115 24.6483 136.463 25.9858 138.121 25.9858C139.781 25.9858 141.129 24.6483 141.129 23.0029C141.129 21.3574 139.781 20.02 138.121 20.02C136.463 20.02 135.115 21.3574 135.115 23.0029ZM136.69 23.0029C136.69 22.2215 137.334 21.5828 138.121 21.5828C138.91 21.5828 139.554 22.2215 139.554 23.0029C139.554 23.7843 138.91 24.423 138.121 24.423C137.334 24.423 136.69 23.7843 136.69 23.0029Z" fill="white"/>
<path fill-rule="evenodd" clip-rule="evenodd" d="M160.77 23.0039C160.77 24.6494 162.118 25.9867 163.777 25.9867C165.436 25.9867 166.784 24.6494 166.784 23.0039C166.784 21.3585 165.436 20.021 163.777 20.021C162.118 20.021 160.77 21.3585 160.77 23.0039ZM162.345 23.0039C162.345 22.2225 162.99 21.5839 163.777 21.5839C164.564 21.5839 165.209 22.2225 165.209 23.0039C165.209 23.7853 164.564 24.4239 163.777 24.4239C162.99 24.4239 162.345 23.7853 162.345 23.0039Z" fill="#94A3B8"/>
</g>
</g>
<path d="M219.693 25.1413L220.165 25.2795C220.134 25.4101 220.087 25.5177 220.016 25.6022C219.945 25.6867 219.866 25.7558 219.764 25.7942C219.662 25.8403 219.536 25.8633 219.379 25.8633C219.19 25.8633 219.04 25.8403 218.915 25.7866C218.796 25.7328 218.694 25.6405 218.607 25.5023C218.52 25.3717 218.473 25.1951 218.473 24.9877C218.473 24.7111 218.552 24.4961 218.702 24.3424C218.851 24.1887 219.071 24.1196 219.347 24.1196C219.567 24.1196 219.733 24.1657 219.859 24.2502C219.985 24.3347 220.078 24.4653 220.134 24.6497L219.662 24.7495C219.646 24.6958 219.631 24.6573 219.607 24.6342C219.575 24.5959 219.544 24.5652 219.497 24.5422C219.449 24.5191 219.403 24.5114 219.355 24.5114C219.236 24.5114 219.143 24.5575 219.079 24.6573C219.032 24.7265 219.008 24.8417 219.008 24.9877C219.008 25.1721 219.04 25.3026 219.095 25.3717C219.15 25.4409 219.236 25.4792 219.339 25.4792C219.441 25.4792 219.52 25.4485 219.567 25.3947C219.631 25.3256 219.67 25.2488 219.693 25.1413Z" fill="#225E63"/>
<path d="M220.354 24.988C220.354 24.7114 220.433 24.4964 220.589 24.3427C220.747 24.1891 220.968 24.1123 221.251 24.1123C221.542 24.1123 221.762 24.1891 221.92 24.3351C222.077 24.4887 222.156 24.6961 222.156 24.9727C222.156 25.1723 222.124 25.3337 222.054 25.4566C221.982 25.5795 221.888 25.6794 221.754 25.7485C221.629 25.8176 221.463 25.856 221.274 25.856C221.078 25.856 220.92 25.8252 220.787 25.7638C220.661 25.7024 220.559 25.6102 220.472 25.4719C220.385 25.3337 220.354 25.1877 220.354 24.988ZM220.889 24.988C220.889 25.157 220.92 25.2799 220.984 25.3567C221.046 25.4336 221.132 25.4719 221.251 25.4719C221.37 25.4719 221.455 25.4336 221.518 25.3644C221.581 25.2876 221.613 25.157 221.613 24.9727C221.613 24.8113 221.581 24.6961 221.51 24.627C221.448 24.5501 221.353 24.5195 221.244 24.5195C221.132 24.5195 221.046 24.5578 220.984 24.6347C220.92 24.6961 220.889 24.8191 220.889 24.988Z" fill="#225E63"/>
<path d="M222.432 24.1431H223.132L223.4 25.1725L223.667 24.1431H224.368V25.833H223.926V24.5425L223.589 25.833H223.195L222.856 24.5425V25.833H222.416V24.1431H222.432Z" fill="#225E63"/>
<path d="M224.714 24.1431H225.603C225.8 24.1431 225.941 24.1892 226.036 24.2814C226.13 24.3735 226.177 24.4964 226.177 24.6654C226.177 24.8343 226.122 24.9727 226.019 25.0648C225.917 25.1647 225.752 25.2108 225.54 25.2108H225.249V25.8407H224.714V24.1431ZM225.249 24.8651H225.382C225.484 24.8651 225.556 24.8498 225.603 24.8113C225.642 24.773 225.665 24.7345 225.665 24.6808C225.665 24.627 225.65 24.5809 225.61 24.5425C225.571 24.5041 225.508 24.4887 225.406 24.4887H225.256V24.8651H225.249Z" fill="#225E63"/>
<path d="M226.459 24.1431H226.995V25.4182H227.829V25.833H226.459V24.1431Z" fill="#225E63"/>
<path d="M228.098 24.1431H228.633V25.833H228.098V24.1431Z" fill="#225E63"/>
<path d="M230.08 25.5486H229.475L229.388 25.8252H228.845L229.498 24.1353H230.08L230.733 25.8252H230.175L230.08 25.5486ZM229.97 25.1876L229.782 24.5807L229.593 25.1876H229.97Z" fill="#225E63"/>
<path d="M230.898 24.1431H231.394L232.046 25.0802V24.1431H232.55V25.833H232.046L231.402 24.9035V25.833H230.898V24.1431Z" fill="#225E63"/>
<path d="M232.788 24.1431H234.417V24.5579H233.873V25.833H233.339V24.5579H232.795V24.1431H232.788Z" fill="#225E63"/>
<path d="M213.257 26.7164L214.807 26.2401L214.303 25.1494C213.933 25.6026 213.563 26.1863 213.257 26.7164ZM212.73 21.7311L209.692 15.125L187.454 16.354L193.616 32.7618L205.474 29.1131C204.718 28.053 204.443 26.7932 205.317 26.1787C206.292 25.4874 207.764 26.2862 208.7 27.4154C209.605 25.9405 212.147 22.5069 212.73 21.7311Z" fill="#225E63"/>
<path d="M208.998 19.8987C209.925 19.8987 210.681 19.2074 210.681 18.3471C210.681 17.4867 209.925 16.7954 208.998 16.7954C208.068 16.7954 207.314 17.4867 207.314 18.3471C207.314 19.1996 208.068 19.8987 208.998 19.8987ZM207.62 20.567H210.374V27.5956H207.62V20.567Z" fill="#FEFEFE"/>
<path d="M206.258 22.6181C206.282 22.6257 206.298 22.6181 206.298 22.595V20.813C206.298 20.7899 206.282 20.7669 206.258 20.7514C206.258 20.7514 205.896 20.521 204.795 20.4596C204.74 20.4289 203.772 20.4212 203.513 20.4596C199.499 20.7746 199.349 23.609 199.349 23.7319V24.4232C199.349 24.5077 199.349 27.4037 203.513 27.6571C203.922 27.6879 204.716 27.6571 204.795 27.6571C205.756 27.6571 206.416 27.373 206.416 27.373C206.44 27.3652 206.456 27.3422 206.456 27.3191V25.6523C206.456 25.6292 206.44 25.6216 206.424 25.6369C206.424 25.6369 206.124 25.8674 204.818 25.998C204.449 26.0363 204.268 26.021 204.134 25.998C202.277 25.6907 202.19 24.3695 202.19 24.3695C202.19 24.3465 202.183 24.308 202.183 24.2927V23.7856C202.183 23.7626 202.183 23.7242 202.19 23.7089C202.19 23.7089 202.317 22.2878 204.134 22.1342H204.818C205.614 22.234 206.258 22.6181 206.258 22.6181Z" fill="#FEFEFE"/>
<path d="M191.701 27.5726C191.701 27.5956 191.717 27.6109 191.74 27.6109H194.423C194.447 27.6109 194.463 27.5956 194.463 27.5726V25.5294C194.463 25.5062 194.479 25.4909 194.503 25.4909C194.503 25.4909 198.791 25.7905 198.791 22.9867C198.791 20.7668 196.099 20.5286 195.219 20.567C195.203 20.567 191.74 20.567 191.74 20.567C191.717 20.567 191.701 20.5824 191.701 20.6055V27.5726ZM194.416 23.9315V22.0957H195.077C195.077 22.0957 196.029 22.1341 196.107 22.7716C196.123 22.8178 196.123 23.1327 196.107 23.148C195.981 23.8931 195.155 23.9315 195.155 23.9315H194.416Z" fill="#FEFEFE"/>
<path d="M209.077 30.9869C209.297 30.9869 209.471 30.9869 209.754 30.8639C210.729 30.3646 214.027 22.5065 217.505 20.0868C217.529 20.0715 217.552 20.0485 217.568 20.0253C217.592 19.9946 217.592 19.9639 217.592 19.9639C217.592 19.9639 217.592 19.8026 217.08 19.8026C213.988 19.7181 210.77 26.0553 209.077 28.5594C209.054 28.5902 208.943 28.5594 208.943 28.5594C208.943 28.5594 207.811 27.2536 206.827 26.7543C206.803 26.7467 206.693 26.7083 206.575 26.7159C206.496 26.7159 206.04 26.8081 205.827 27.0232C205.575 27.2843 205.584 27.4303 205.584 27.7452C205.584 27.7683 205.599 27.8758 205.631 27.9296C205.875 28.3444 206.969 29.8192 207.873 30.6334C208.007 30.7333 208.22 30.9869 209.077 30.9869Z" fill="#2BBC5D"/>
<path d="M218.418 17.7139H220.992C221.503 17.7139 221.912 17.783 222.219 17.9136C222.534 18.0518 222.794 18.2439 222.99 18.4897C223.194 18.7432 223.344 19.0351 223.43 19.3654C223.525 19.6957 223.572 20.0491 223.572 20.4254C223.572 21.0092 223.501 21.4625 223.367 21.7851C223.234 22.1077 223.045 22.3766 222.802 22.5993C222.557 22.8143 222.297 22.9603 222.022 23.0372C221.644 23.137 221.298 23.1831 220.992 23.1831H218.418V17.7139ZM220.15 18.9506V21.9387H220.574C220.936 21.9387 221.196 21.9003 221.346 21.8235C221.495 21.7466 221.62 21.6084 221.707 21.4164C221.794 21.2243 221.841 20.9017 221.841 20.4639C221.841 19.88 221.746 19.4883 221.55 19.2733C221.353 19.0582 221.039 18.9506 220.582 18.9506H220.15Z" fill="#225E63"/>
<path d="M224.053 21.3777L225.706 21.2779C225.744 21.539 225.815 21.7388 225.925 21.877C226.106 22.0998 226.358 22.2074 226.689 22.2074C226.933 22.2074 227.13 22.1536 227.264 22.0383C227.397 21.9231 227.468 21.7926 227.468 21.6467C227.468 21.5083 227.405 21.3777 227.279 21.2625C227.153 21.1473 226.854 21.0475 226.39 20.9476C225.626 20.7786 225.092 20.5558 224.761 20.2793C224.43 20.0028 224.272 19.6494 224.272 19.2192C224.272 18.9351 224.36 18.6739 224.524 18.4203C224.69 18.1669 224.942 17.9749 225.28 17.8289C225.618 17.6829 226.075 17.6138 226.657 17.6138C227.373 17.6138 227.924 17.7444 228.293 18.0055C228.671 18.2668 228.892 18.6816 228.963 19.25L227.326 19.3422C227.279 19.0963 227.192 18.9196 227.051 18.8044C226.909 18.6892 226.72 18.6355 226.476 18.6355C226.272 18.6355 226.122 18.6739 226.02 18.7584C225.917 18.8429 225.87 18.9427 225.87 19.0656C225.87 19.1501 225.91 19.2345 225.996 19.3037C226.075 19.3729 226.272 19.442 226.579 19.5035C227.334 19.6648 227.877 19.826 228.208 19.9874C228.538 20.1487 228.774 20.3561 228.924 20.5942C229.074 20.8324 229.144 21.1089 229.144 21.4085C229.144 21.7619 229.042 22.0844 228.845 22.3764C228.648 22.6759 228.365 22.8987 228.011 23.0523C227.657 23.2059 227.2 23.2828 226.657 23.2828C225.706 23.2828 225.044 23.1061 224.674 22.745C224.312 22.384 224.108 21.9308 224.053 21.3777Z" fill="#225E63"/>
<path d="M229.583 21.3778L231.235 21.2779C231.275 21.539 231.345 21.7387 231.455 21.877C231.636 22.0997 231.888 22.2074 232.219 22.2074C232.463 22.2074 232.659 22.1536 232.793 22.0383C232.927 21.9231 232.997 21.7926 232.997 21.6466C232.997 21.5083 232.935 21.3778 232.809 21.2625C232.683 21.1473 232.383 21.0475 231.919 20.9476C231.156 20.7786 230.621 20.5558 230.291 20.2792C229.968 20.0027 229.803 19.6494 229.803 19.2192C229.803 18.935 229.889 18.6739 230.055 18.4204C230.22 18.1669 230.471 17.9748 230.81 17.8289C231.149 17.6829 231.605 17.6138 232.187 17.6138C232.903 17.6138 233.454 17.7444 233.824 18.0055C234.201 18.2668 234.422 18.6815 234.492 19.2499L232.856 19.3421C232.809 19.0963 232.723 18.9196 232.58 18.8044C232.439 18.6892 232.25 18.6354 232.007 18.6354C231.801 18.6354 231.653 18.6739 231.55 18.7584C231.447 18.8428 231.401 18.9427 231.401 19.0656C231.401 19.1501 231.439 19.2346 231.527 19.3037C231.605 19.3729 231.801 19.442 232.109 19.5035C232.864 19.6647 233.407 19.826 233.737 19.9874C234.068 20.1487 234.305 20.3561 234.453 20.5942C234.603 20.8324 234.674 21.1089 234.674 21.4085C234.674 21.7618 234.571 22.0844 234.375 22.3763C234.179 22.6759 233.895 22.8986 233.541 23.0524C233.187 23.2059 232.73 23.2828 232.187 23.2828C231.235 23.2828 230.573 23.106 230.204 22.745C229.835 22.384 229.629 21.9308 229.583 21.3778Z" fill="#225E63"/>
</g>
</g>
<defs>
<clipPath id="clip0_292_29970">
<rect width="242" height="46.3898" fill="white"/>
</clipPath>
</defs>
</svg>
