<svg width="17" height="17" viewBox="0 0 17 17" fill="none" xmlns="http://www.w3.org/2000/svg">
<path d="M11.73 17H14C15.6569 17 17 15.6569 17 14V3.00002C17 1.34316 15.6568 5.76772e-06 14 1.28825e-05L2.99999 6.01184e-05C1.34314 6.72331e-05 0 1.34321 0 3.00006V14C0 15.6569 1.34315 17 3 17H9.08438V10.4125H6.86375V7.85189H9.08438V5.96064C9.08438 3.76127 10.4231 2.57127 12.3888 2.57127C13.3238 2.57127 14.1313 2.63502 14.365 2.66689V4.96189H13.005C11.9425 4.96189 11.73 5.47189 11.73 6.21564V7.85189H14.2694L13.94 10.4125H11.73V17Z" fill="#16489F"/>
</svg>
