<svg width="17" height="17" viewBox="0 0 17 17" fill="none" xmlns="http://www.w3.org/2000/svg">
<path d="M13.7129 -0.00341797H3.28711C1.47422 -0.00341797 0 1.4708 0 3.28369V6.75674V13.7161C0 15.529 1.47422 17.0032 3.28711 17.0032H13.7129C15.5258 17.0032 17 15.529 17 13.7161V6.7501V3.27705C16.9934 1.4708 15.5191 -0.00341797 13.7129 -0.00341797ZM14.6559 1.95557H15.0344V2.32744V4.8376L12.159 4.84424L12.1523 1.96221L14.6559 1.95557ZM6.06953 6.7501C6.61406 5.99971 7.49727 5.50166 8.49336 5.50166C9.48945 5.50166 10.3727 5.99307 10.9172 6.7501C11.2758 7.2415 11.4816 7.8458 11.4816 8.49658C11.4816 10.1435 10.1402 11.4915 8.48672 11.4915C6.8332 11.4915 5.50508 10.1435 5.50508 8.49658C5.50508 7.8458 5.71758 7.2415 6.06953 6.7501ZM15.3398 13.7095C15.3398 14.606 14.6094 15.3364 13.7129 15.3364H3.28711C2.39062 15.3364 1.66016 14.606 1.66016 13.7095V6.7501H4.19687C3.97773 7.28799 3.85156 7.879 3.85156 8.49658C3.85156 11.0599 5.93672 13.145 8.5 13.145C11.0633 13.145 13.1484 11.0599 13.1484 8.49658C13.1484 7.879 13.0223 7.28799 12.8031 6.7501H15.3398V13.7095Z" fill="#16489F"/>
</svg>
