<svg width="17" height="17" viewBox="0 0 17 17" fill="none" xmlns="http://www.w3.org/2000/svg">
<path d="M8.5 0C3.80444 0 0 3.80444 0 8.5C0 13.1956 3.80444 17 8.5 17C13.1956 17 17 13.1956 17 8.5C17 3.80444 13.1956 0 8.5 0ZM12.4415 5.78206C12.3147 7.12561 11.7595 10.3885 11.4784 11.8931C11.3585 12.5306 11.1254 12.7431 10.8992 12.7637C10.4056 12.8083 10.0321 12.4381 9.55222 12.1228C8.80504 11.6327 8.38004 11.3276 7.65685 10.8478C6.81714 10.296 7.3621 9.99093 7.83851 9.49395C7.96532 9.36371 10.1383 7.38609 10.1794 7.20786C10.1863 7.18387 10.1897 7.10161 10.1383 7.05706C10.0869 7.0125 10.0149 7.02964 9.96351 7.03992C9.88811 7.05591 8.69308 7.84536 6.37843 9.40827C6.04026 9.64133 5.73293 9.75444 5.45645 9.74758C5.15141 9.74073 4.56875 9.57621 4.13347 9.43569C3.60222 9.26431 3.17722 9.17177 3.21492 8.87702C3.2332 8.72392 3.44456 8.56741 3.84899 8.40746C6.32587 7.32897 7.97789 6.6172 8.80504 6.27218C11.1665 5.29194 11.6567 5.12056 11.9754 5.11371C12.0474 5.11371 12.2016 5.13085 12.3044 5.21311C12.3715 5.2721 12.4143 5.35396 12.4244 5.44274C12.4429 5.55483 12.4487 5.66867 12.4415 5.78206Z" fill="#16489F"/>
</svg>
