<svg width="16" height="19" viewBox="0 0 16 19" fill="none" xmlns="http://www.w3.org/2000/svg">
<path d="M8.13351 0.983629C9.07584 0.969238 10.0113 0.976722 10.9461 0.969238C10.9772 2.13837 11.4515 3.19065 12.2062 3.97007L12.205 3.96892C13.0173 4.70056 14.0742 5.17489 15.2393 5.25548L15.2554 5.25663V8.15557C14.1547 8.12794 13.1197 7.87408 12.1866 7.43775L12.2338 7.45732C11.7825 7.2403 11.4009 7.01753 11.0382 6.76885L11.0681 6.78842C11.0612 8.88894 11.075 10.9895 11.0537 13.0825C10.9945 14.1492 10.6399 15.122 10.0711 15.9342L10.0826 15.9164C9.13167 17.2784 7.59125 18.1723 5.83957 18.2253H5.83151C5.76071 18.2288 5.67724 18.2305 5.59319 18.2305C4.59733 18.2305 3.66652 17.953 2.87328 17.4712L2.8963 17.4845C1.45259 16.6158 0.456726 15.1295 0.272521 13.4008L0.270218 13.3772C0.255827 13.0175 0.248919 12.6577 0.26331 12.3054C0.545376 9.55439 2.85025 7.42623 5.65191 7.42623C5.96679 7.42623 6.27533 7.45329 6.57524 7.50452L6.54301 7.49992C6.5574 8.56428 6.51422 9.62922 6.51422 10.6936C6.27073 10.6055 5.98981 10.5543 5.69681 10.5543C4.62151 10.5543 3.70681 11.2416 3.36833 12.2012L3.36315 12.2185C3.28659 12.4643 3.24227 12.7469 3.24227 13.0393C3.24227 13.1579 3.24975 13.2753 3.26356 13.3905L3.26241 13.3767C3.45353 14.5544 4.46321 15.4432 5.68069 15.4432C5.71581 15.4432 5.75035 15.4426 5.78488 15.4409H5.7797C6.62187 15.4156 7.35294 14.9626 7.76625 14.2931L7.77201 14.2827C7.9257 14.0686 8.03104 13.8095 8.06616 13.5281L8.06674 13.52C8.13869 12.2323 8.10991 10.952 8.11682 9.66433C8.12372 6.76539 8.10991 3.87336 8.13121 0.981902L8.13351 0.983629Z" fill="#16489F"/>
</svg>
