<svg width="25" height="22" viewBox="0 0 25 22" fill="none" xmlns="http://www.w3.org/2000/svg">
<path d="M4.30912 15.6429V7.37498M4.30912 7.37498L4.30967 5.49219C4.30967 4.7454 4.92428 4.147 5.69128 4.147H19.5085C20.276 4.147 20.8901 4.7454 20.8901 5.49219L20.8895 7.37498M4.30912 7.37498H12.5993H20.8895M20.8895 7.37498L20.8901 15.6515M2.29961 15.6515H10.3388V16.3853C10.3388 16.5202 10.4513 16.6298 10.5898 16.6298H14.6094C14.7479 16.6298 14.8604 16.5202 14.8604 16.3853V15.6515H22.8996V16.6298C22.8996 17.3118 22.3437 17.853 21.6432 17.853H3.55597C2.85602 17.853 2.29961 17.3118 2.29961 16.6298V15.6515Z" stroke="#16489F" stroke-width="1.4" stroke-miterlimit="10" stroke-linecap="round" stroke-linejoin="round"/>
</svg>
