<svg width="25" height="22" viewBox="0 0 25 22" fill="none" xmlns="http://www.w3.org/2000/svg">
<g clip-path="url(#clip0_201_24549)">
<path d="M16.3862 6.17203V3.77777C16.3862 3.61991 16.2809 3.51466 16.1231 3.51466H13.8338V1.40982H21.2799V3.0937C19.7013 3.19894 18.6489 4.77757 18.6489 6.17203M16.3862 6.17203C16.3335 9.22405 15.4653 10.5659 14.6234 11.8551C14.5444 11.9867 14.4655 12.0919 14.3866 12.2235C14.1761 12.5129 13.6236 13.3285 13.4394 13.5916M16.3862 6.17203H18.6489M18.6489 6.17203C18.8857 6.48776 19.6487 7.61911 20.438 9.51347C20.8326 10.4343 21.3852 12.1445 21.7798 13.5916M13.4394 13.5916C12.8342 14.4862 12.4133 15.2492 12.4133 16.5647V18.3012C12.4133 18.3012 12.4133 19.6167 12.4133 19.5904C12.4133 20.1429 12.8605 20.5902 13.4131 20.5902H21.5956C21.8588 20.5902 22.1219 20.485 22.306 20.2745C22.5165 20.0903 22.6218 19.8272 22.5954 19.5378C22.5691 19.1168 22.5428 18.6958 22.5165 18.3012C22.3587 16.7489 22.0429 14.8282 21.7535 13.5916H13.4394ZM4.91512 4.01392V1.71038C4.91512 1.65775 4.96774 1.60513 5.02036 1.60513H7.70404C7.75666 1.60513 7.80928 1.65775 7.80928 1.71038V4.01392M2.6261 13.0648H10.1246V12.3544C10.1246 11.9597 10.0194 11.5914 9.80888 11.2756C9.49316 10.8284 9.49316 10.1969 9.80888 9.72331C10.0194 9.40759 10.1246 9.03924 10.1246 8.64458V6.03984C10.1246 4.93479 9.23005 4.04024 8.12501 4.04024H4.6257C3.52066 4.04024 2.6261 4.93479 2.6261 6.03984V8.64458C2.6261 9.03924 2.73135 9.40759 2.94183 9.72331C3.25756 10.1706 3.25756 10.802 2.94183 11.2756C2.73135 11.5914 2.6261 11.9597 2.6261 12.3544V13.0648ZM2.6261 13.0648V18.3005H2.59979V19.9844C2.59979 20.3265 2.8629 20.5896 3.20494 20.5896H9.51947C9.8615 20.5896 10.1246 20.3265 10.1246 19.9844V18.3005M10.0983 13.0648V18.3005" stroke="#16489F" stroke-width="1.3" stroke-miterlimit="10" stroke-linecap="round" stroke-linejoin="round"/>
</g>
<defs>
<clipPath id="clip0_201_24549">
<rect width="24" height="21.1804" fill="white" transform="translate(0.599609 0.409821)"/>
</clipPath>
</defs>
</svg>
