<svg width="25" height="24" viewBox="0 0 25 24" fill="none" xmlns="http://www.w3.org/2000/svg">
<path d="M20.0426 2.52707H5.15659C4.01984 2.52707 3.09961 3.4473 3.09961 4.58405V19.416C3.09961 20.5527 4.01984 21.4729 5.15659 21.4729H20.0426C21.1794 21.4729 22.0996 20.5527 22.0996 19.416V4.52992C22.0996 3.39317 21.1794 2.52707 20.0426 2.52707Z" stroke="#16489F" stroke-width="1.4" stroke-miterlimit="10" stroke-linecap="round" stroke-linejoin="round"/>
<path d="M14.4208 10.5778H18.7592C19.0421 10.5778 19.2307 10.3892 19.2307 10.1063V5.81504C19.2307 5.5321 19.0421 5.34348 18.7592 5.34348H14.4208C14.1378 5.34348 13.9492 5.5321 13.9492 5.81504V10.1534C13.9492 10.3892 14.1378 10.5778 14.4208 10.5778Z" stroke="#16489F" stroke-width="1.4" stroke-miterlimit="10" stroke-linecap="round" stroke-linejoin="round"/>
<path d="M6.40461 10.2774H10.8706C11.0178 10.2774 11.2142 10.1882 11.3123 10.0545C11.4105 9.92072 11.4105 9.74239 11.3123 9.60865L9.05477 5.50721C8.90754 5.19515 8.31861 5.19515 8.17138 5.50721L5.96292 9.65323C5.86477 9.78697 5.91384 9.9653 5.96292 10.099C6.06107 10.1882 6.2083 10.2774 6.40461 10.2774Z" stroke="#16489F" stroke-width="1.4" stroke-miterlimit="10" stroke-linecap="round" stroke-linejoin="round"/>
<path d="M8.67442 12.5935C7.14637 12.5935 5.91406 13.8258 5.91406 15.3538C5.91406 16.8819 7.14637 18.1142 8.67442 18.1142C10.2025 18.1142 11.3855 16.8819 11.3855 15.3538C11.3855 13.8258 10.1532 12.5935 8.67442 12.5935Z" stroke="#16489F" stroke-width="1.4" stroke-miterlimit="10" stroke-linecap="round" stroke-linejoin="round"/>
<path d="M18.6626 14.0377L17.6377 13.8979L17.1718 13.0128C17.0321 12.7798 16.7991 12.5935 16.5196 12.5935C16.2401 12.5935 16.0072 12.7332 15.8674 13.0128L15.4015 13.8979L14.3766 14.0377C14.0971 14.0842 13.8642 14.2706 13.8176 14.5035C13.771 14.7365 13.8176 15.0626 14.0039 15.2489L14.7493 15.9477L14.563 16.926C14.5164 17.2056 14.6096 17.4851 14.8425 17.6248C14.9823 17.718 15.122 17.7646 15.2618 17.7646C15.3549 17.7646 15.4947 17.718 15.5879 17.6714L16.473 17.2056L17.3582 17.6714C17.5911 17.8112 17.8706 17.7646 18.1036 17.6248C18.3365 17.4851 18.4297 17.2056 18.3831 16.926L18.1967 15.9477L18.9421 15.2489C19.1285 15.0626 19.2216 14.783 19.1285 14.5035C19.175 14.2706 18.9421 14.0842 18.6626 14.0377Z" stroke="#16489F" stroke-width="1.4" stroke-miterlimit="10" stroke-linecap="round" stroke-linejoin="round"/>
</svg>
