<svg width="25" height="22" viewBox="0 0 25 22" fill="none" xmlns="http://www.w3.org/2000/svg">
<path d="M20.4142 9.71135V18.14C20.4142 19.7177 19.1355 20.9968 17.5579 20.9973L13.5396 20.9986H12.5996M13.5396 3.87555C13.5396 3.64454 13.3523 3.45724 13.1213 3.45724H12.5996M11.6595 3.87555C11.6595 3.64454 11.8469 3.45724 12.0778 3.45724H12.5996M4.78506 9.71592V18.1427C4.78506 19.7211 6.06484 21.0005 7.64327 21L11.6595 20.9986H12.5996M11.6398 5.26697V5.52277C7.90257 5.13139 5.37802 3.83969 5.07094 2.76264C4.94571 2.32776 5.19116 1.87753 5.79747 1.42729C6.25692 1.07213 6.84552 0.928981 7.41669 1.03334C9.33264 1.34036 11.2537 3.79597 11.64 4.31271M13.5375 4.34993C13.9239 3.83326 15.8449 1.37765 17.7608 1.07056C18.3319 0.966269 18.9206 1.10942 19.38 1.46451C19.9864 1.91481 20.2318 2.36505 20.1066 2.79993C19.7995 3.87669 17.2749 5.16868 13.5377 5.56006V5.30426M12.5996 3.45724V20.9986M13.5373 5.78321H19.55C20.6353 5.78321 21.5152 6.66307 21.5152 7.74842V7.74842C21.5152 8.83378 20.6353 9.71364 19.55 9.71364H13.542H5.64925C4.56389 9.71364 3.68404 8.83378 3.68404 7.74842V7.74842C3.68404 6.66307 4.56389 5.78321 5.64925 5.78321H13.5373Z" stroke="#16489F" stroke-width="1.4" stroke-miterlimit="10" stroke-linecap="round" stroke-linejoin="round"/>
</svg>
