<svg width="25" height="24" viewBox="0 0 25 24" fill="none" xmlns="http://www.w3.org/2000/svg">
<path d="M12.5996 13.387H19.7907L18.6282 14.3872C18.5471 14.4413 18.5201 14.5494 18.5201 14.6576C18.5201 14.7657 18.5741 14.8468 18.6552 14.9279L20.1151 16.0633L18.493 16.9014C18.3849 16.9555 18.3308 17.0636 18.3038 17.1717C18.3038 17.2799 18.3579 17.4151 18.439 17.4691L19.9799 18.5235L18.4119 19.5237C18.3308 19.5778 18.2497 19.6859 18.2497 19.7941C18.2497 19.9022 18.3038 20.0103 18.3849 20.0914C18.4119 20.1185 19.7636 21.1458 19.7096 21.1187C12.1671 21.1458 2.89436 21.3891 2.29961 16.8744V8.43973M22.8996 8.68303V16.9825C22.8455 17.1988 22.413 18.3072 20.9261 19.3345M12.5996 2.8707C18.2768 2.8707 22.8996 5.22267 22.8996 8.14235C22.8996 11.035 18.3038 13.387 12.6266 13.414H12.5996C6.92244 13.414 2.29961 11.062 2.29961 8.14235C2.29961 5.22267 6.89541 2.8707 12.5996 2.8707ZM12.5996 6.57437C14.7083 6.57437 16.1681 7.3854 16.1681 8.11532C16.1681 8.84524 14.7083 9.65626 12.5996 9.65626C10.4909 9.65626 9.0311 8.84524 9.0311 8.11532C9.0311 7.3854 10.4909 6.57437 12.5996 6.57437Z" stroke="#16489F" stroke-width="1.4" stroke-miterlimit="10" stroke-linecap="round" stroke-linejoin="round"/>
</svg>
