<svg width="25" height="22" viewBox="0 0 25 22" fill="none" xmlns="http://www.w3.org/2000/svg">
<path d="M20.0967 9.54857H20.4625C20.6453 9.54857 20.8053 9.73143 20.8053 9.91429V12.0629C20.8053 12.2686 20.6453 12.4286 20.4396 12.4286H20.0739V19.56C20.0739 20.3371 19.4567 20.9771 18.6567 20.9771H5.81103C5.03389 20.9771 4.39389 20.36 4.39389 19.56V2.41714C4.39389 1.61714 5.01103 1 5.81103 1H18.6796C19.4567 1 20.0967 1.61714 20.0967 2.41714V9.54857ZM20.0967 9.54857H18.6796C17.8796 9.54857 17.2625 10.1886 17.2625 10.9657C17.2625 11.7429 17.9025 12.3829 18.6796 12.3829H20.0967M16.2796 1V21M13.6736 15.4297H7.22787M12.5993 17.7773H9.03354M7.22823 7.42208H13.6511C13.8568 7.42208 14.0168 7.26208 14.0168 7.05636V4.56493C14.0168 4.35922 13.8568 4.19922 13.6511 4.19922H7.22823C7.02252 4.19922 6.86252 4.35922 6.86252 4.56493V7.05636C6.88538 7.26208 7.04538 7.42208 7.22823 7.42208Z" stroke="#16489F" stroke-width="1.4" stroke-miterlimit="10" stroke-linecap="round" stroke-linejoin="round"/>
</svg>
