<svg width="25" height="22" viewBox="0 0 25 22" fill="none" xmlns="http://www.w3.org/2000/svg">
<g clip-path="url(#clip0_201_24576)">
<path d="M12.2468 1.08569H17.1105C18.6907 1.08569 19.9836 2.37853 19.9836 3.95871V7.14085M5.05351 7.15863V3.95871C5.05351 2.37853 6.34635 1.08569 7.92653 1.08569H12.7504M6.63261 10.9661C6.63261 10.9661 12.427 8.70389 18.6254 10.9661M13.7399 14.0903C13.7399 14.0903 8.2202 14.2259 7.45101 14.0903C7.1434 14.036 6.93074 13.8659 6.78654 13.6813C6.59717 13.4389 6.5072 13.1335 6.5072 12.826V9.40431C6.5072 8.21514 5.52073 7.25658 4.32141 7.30209C3.23839 7.34317 2.34224 8.23932 2.30116 9.32234C2.25564 10.5217 3.21438 11.5081 4.40338 11.5081V17.5289C4.40338 17.5289 4.58439 18.4048 5.31643 18.4419C6.04846 18.4791 19.8026 18.4419 19.8026 18.4419C19.8026 18.4419 20.7528 18.4337 20.7528 17.6645C20.7528 16.8954 20.7958 11.5081 20.7958 11.5081C21.985 11.5081 22.9436 10.5217 22.8981 9.32234C22.857 8.23932 21.9608 7.34317 20.8778 7.30209C19.6785 7.25658 18.692 8.21531 18.692 9.40431V12.826C18.692 13.1335 18.602 13.4389 18.4127 13.6813C18.2685 13.8659 18.0558 14.036 17.7482 14.0903M5.64433 20.7256C6.75136 20.9047 7.05133 19.1828 7.18806 18.4607M19.5142 20.9014C18.4072 21.0804 18.1072 19.3586 17.9705 18.6365" stroke="#16489F" stroke-width="1.4" stroke-miterlimit="10" stroke-linecap="round" stroke-linejoin="round"/>
</g>
<defs>
<clipPath id="clip0_201_24576">
<rect width="24" height="21.8287" fill="white" transform="translate(0.599609 0.0856934)"/>
</clipPath>
</defs>
</svg>
