<svg width="25" height="24" viewBox="0 0 25 24" fill="none" xmlns="http://www.w3.org/2000/svg">
<path d="M19.1715 9.79651C19.3974 10.0978 19.5481 10.4744 19.5481 10.8886V19.7763C19.5481 21.1696 18.4183 22.2994 17.0249 22.2994C14.4264 22.2994 10.6605 22.2994 8.06195 22.2994C6.66855 22.2994 5.53877 21.1696 5.53877 19.7763C5.53877 17.1401 5.53877 13.2988 5.53877 10.8886C5.53877 10.4367 5.68941 9.98481 6.02834 9.64587M15.8572 5.01459C15.8572 3.16928 14.3884 1.70056 12.5431 1.70056C10.6978 1.70056 9.22911 3.16928 9.22911 5.01459M14.0114 16.681H11.0739M19.7737 6.59396C19.7737 5.84077 19.1712 5.20056 18.3803 5.20056H6.81889C6.0657 5.20056 5.42549 5.80311 5.42549 6.59396C5.42549 7.00821 5.42549 7.53544 5.42549 8.06268C5.42549 9.49373 6.59293 10.6988 8.06165 10.6988C10.5848 10.6988 14.6144 10.6988 17.1376 10.6988C18.5686 10.6988 19.7737 9.53139 19.7737 8.06268V6.59396ZM17.7022 16.2356C17.7022 15.1434 16.7983 14.2396 15.7062 14.2396H9.37945C8.28732 14.2396 7.3835 15.1434 7.3835 16.2356V20.1521H17.7022V16.2356Z" stroke="#16489F" stroke-width="1.4" stroke-miterlimit="10" stroke-linecap="round" stroke-linejoin="round"/>
</svg>
