<svg width="25" height="24" viewBox="0 0 25 24" fill="none" xmlns="http://www.w3.org/2000/svg">
<path d="M19.8606 8.81734C19.2848 8.62542 18.869 8.11363 18.805 7.50589C18.805 7.40993 18.741 7.34596 18.6451 7.34596C17.9094 7.28198 17.3336 6.67424 17.2696 5.97054C17.2696 5.87458 17.2057 5.8106 17.1097 5.8106C16.502 5.74663 15.9902 5.33081 15.7983 4.75505M16.7259 8.01767L14.9346 9.80892M12.5996 7.79377L15.7023 4.69108C15.9902 4.4032 16.342 4.24326 16.7579 4.21128L19.8925 3.98737C20.0845 3.95539 20.2764 4.05134 20.4363 4.17929C20.5643 4.30724 20.6602 4.53114 20.6282 4.72306L20.4043 7.85774C20.3723 8.27357 20.2124 8.62542 19.9245 8.9133L16.8218 12.016L22.0037 17.1978C22.1316 17.3258 22.1316 17.5177 22.0037 17.6456L18.2292 21.388C18.1013 21.516 17.9094 21.516 17.7814 21.388L12.5996 16.2062M12.5996 7.79377L7.41779 2.61195C7.28985 2.484 7.09793 2.484 6.96998 2.61195L3.19557 6.38636C3.06762 6.51431 3.06762 6.70623 3.19557 6.83417L8.37739 11.984L3.64338 16.718C3.38749 17.0059 3.19557 17.3258 3.16358 17.6776C3.16358 18.0295 3.25954 18.3493 3.54742 18.6372L5.94641 21.0362C6.55416 21.6119 7.32183 21.484 7.8656 20.9402L12.5996 16.2062M12.5996 7.79377L16.7898 12.0156M12.5996 16.2062L8.37695 12.016M10.4885 14.1271L6.36224 18.2534M8.47335 20.3325L4.25112 16.1423M18.869 4.4032C18.9969 5.07491 19.5407 5.5867 20.1804 5.71464M8.21699 5.4907C8.21699 5.91468 7.87329 6.25838 7.44932 6.25838C7.02534 6.25838 6.68164 5.91468 6.68164 5.4907C6.68164 5.06672 7.02534 4.72302 7.44932 4.72302C7.87329 4.72302 8.21699 5.06672 8.21699 5.4907Z" stroke="#16489F" stroke-width="1.3" stroke-miterlimit="10" stroke-linecap="round" stroke-linejoin="round"/>
</svg>
