<svg width="25" height="24" viewBox="0 0 25 24" fill="none" xmlns="http://www.w3.org/2000/svg">
<path d="M4.11179 18.3966C3.03687 16.6767 2.81036 14.8243 2.81036 13.628C2.81036 12.1836 3.17509 10.8123 3.80243 9.61594M12.7725 22.1472C8.22709 22.6079 5.75727 20.6924 4.2254 18.3581M19.1644 9.86564C19.7188 11.0036 20.0252 12.2729 20.0252 13.6297C20.0252 17.9189 16.8739 21.4787 12.7743 22.1352C12.7743 22.1352 16.9177 13.9944 8.70392 5.45969M3.83478 9.55317C5.76964 5.95986 9.09771 5.02219 11.4174 5.02219C14.3061 5.02219 17.3174 6.48197 19.1294 9.82958M6.5305 16.2566L2.29962 20.0498M17.0818 11.4982L20.7255 8.62375M17.0184 7.06594L20.9442 3.70969M16.4511 20.6187C16.4511 20.6187 19.4857 11.6026 14.1314 5.47511M2.94122 15.1752C2.94122 15.1752 6.34052 11.7468 12.7306 11.4987M22.7826 7.91015C22.7826 8.53863 22.2731 9.04811 21.6446 9.04811C21.0161 9.04811 20.5067 8.53863 20.5067 7.91015C20.5067 7.28167 21.0161 6.77219 21.6446 6.77219C22.2731 6.77219 22.7826 7.28167 22.7826 7.91015ZM22.8996 2.92187C22.8996 3.55034 22.3901 4.05983 21.7616 4.05983C21.1332 4.05983 20.6237 3.55034 20.6237 2.92187C20.6237 2.29339 21.1332 1.78391 21.7616 1.78391C22.3901 1.78391 22.8996 2.29339 22.8996 2.92187Z" stroke="#16489F" stroke-width="1.4" stroke-miterlimit="10" stroke-linecap="round" stroke-linejoin="round"/>
</svg>
