<svg width="25" height="24" viewBox="0 0 25 24" fill="none" xmlns="http://www.w3.org/2000/svg">
<path d="M8.39708 7.86544C8.76727 4.90387 10.9231 2.46492 13.8193 1.72453C13.9499 1.70275 14.0806 1.74631 14.1459 1.85519C14.8645 3.05288 16.3888 3.35775 17.4994 2.66091C17.63 2.5738 17.826 2.61736 17.9131 2.74801C18.1744 3.18354 18.6753 3.4013 19.1761 3.29242C19.3721 3.24887 19.5463 3.4013 19.5463 3.59729C19.5463 4.96919 20.7222 5.90557 21.9852 5.73136C22.1159 5.70959 22.2465 5.77492 22.3119 5.90557C22.7038 6.7984 22.8998 7.77833 22.8998 8.75827C22.8998 12.3296 20.2867 15.3783 16.8026 15.9227M9.55078 22.2809C5.54403 22.2809 2.29942 19.0145 2.29942 15.0294C2.29942 11.0443 5.5658 7.77791 9.55078 7.77791C13.5358 7.77791 16.8021 11.0443 16.8021 15.0294C16.8239 19.0362 13.5575 22.2809 9.55078 22.2809ZM9.96797 13.6403C9.14049 13.6403 8.46544 12.9653 8.46544 12.1378C8.46544 11.3756 9.03161 10.9183 9.96797 10.9183C10.7955 10.9183 11.1874 11.2885 11.1874 12.1378C11.1874 13.0742 10.7301 13.6403 9.96797 13.6403ZM12.1619 17.0357C11.7046 16.5784 11.7046 15.838 12.1619 15.3807C12.5757 14.9669 13.1418 15.0105 13.6645 15.5331C14.1218 15.9904 14.1218 16.4259 13.6645 16.8832C13.1854 17.3405 12.6192 17.493 12.1619 17.0357ZM6.99981 17.1372C6.54252 16.6799 6.54252 15.9395 6.99981 15.4822C7.41356 15.0685 7.97973 15.112 8.50235 15.6347C8.95964 16.092 8.95964 16.5275 8.50235 16.9848C8.02328 17.4639 7.45711 17.5945 6.99981 17.1372ZM18.0217 9.3669C17.1942 9.3669 16.5191 8.69184 16.5191 7.86434C16.5191 7.10217 17.0853 6.64487 18.0217 6.64487C18.8492 6.64487 19.2411 7.01506 19.2411 7.86434C19.2411 8.80072 18.7838 9.3669 18.0217 9.3669ZM12.8611 6.36379C12.4039 5.90649 12.4039 5.1661 12.8611 4.7088C13.2749 4.29505 13.8411 4.3386 14.3637 4.86123C14.821 5.31853 14.821 5.75406 14.3637 6.21136C13.9064 6.69044 13.3184 6.84287 12.8611 6.36379Z" stroke="#16489F" stroke-width="1.4" stroke-miterlimit="10" stroke-linecap="round" stroke-linejoin="round"/>
</svg>
