<svg width="25" height="24" viewBox="0 0 25 24" fill="none" xmlns="http://www.w3.org/2000/svg">
<path d="M3.40039 4.80078C3.40039 3.69621 4.29582 2.80078 5.40039 2.80078H9.07968C10.1843 2.80078 11.0797 3.69621 11.0797 4.80078V8.48007C11.0797 9.58464 10.1843 10.4801 9.07968 10.4801H5.40039C4.29582 10.4801 3.40039 9.58464 3.40039 8.48007V4.80078Z" stroke="#16489F" stroke-width="1.5"/>
<path d="M3.40039 15.5195C3.40039 14.415 4.29582 13.5195 5.40039 13.5195H9.07968C10.1843 13.5195 11.0797 14.415 11.0797 15.5195V19.1988C11.0797 20.3034 10.1843 21.1988 9.07968 21.1988H5.40039C4.29582 21.1988 3.40039 20.3034 3.40039 19.1988V15.5195Z" stroke="#16489F" stroke-width="1.5"/>
<path d="M14.1191 4.80078C14.1191 3.69621 15.0146 2.80078 16.1191 2.80078H19.7984C20.903 2.80078 21.7984 3.69621 21.7984 4.80078V8.48007C21.7984 9.58464 20.903 10.4801 19.7984 10.4801H16.1191C15.0146 10.4801 14.1191 9.58464 14.1191 8.48007V4.80078Z" stroke="#16489F" stroke-width="1.5"/>
<path d="M14.1191 15.5195C14.1191 14.415 15.0146 13.5195 16.1191 13.5195H19.7984C20.903 13.5195 21.7984 14.415 21.7984 15.5195V19.1988C21.7984 20.3034 20.903 21.1988 19.7984 21.1988H16.1191C15.0146 21.1988 14.1191 20.3034 14.1191 19.1988V15.5195Z" stroke="#16489F" stroke-width="1.5"/>
</svg>
