<svg width="20" height="20" viewBox="0 0 20 20" fill="none" xmlns="http://www.w3.org/2000/svg">
<path d="M10.4473 5.55664C9.53112 5.55664 8.7793 6.3085 8.7793 7.22467C8.7793 7.77559 8.95846 8.41685 9.15985 9.06728C9.36124 9.71774 9.59179 10.37 9.71771 10.839C9.75753 10.9885 9.8154 11.1367 9.93901 11.2686C10.0626 11.4006 10.2645 11.4811 10.4474 11.4811C10.6307 11.4811 10.8321 11.4006 10.9557 11.2686C11.0793 11.1367 11.1339 10.9885 11.1742 10.839C11.2997 10.37 11.5302 9.71772 11.7321 9.06728C11.9335 8.41681 12.1126 7.77602 12.1126 7.22467C12.1126 6.30846 11.3636 5.55664 10.4473 5.55664Z" fill="#FF5650"/>
<path d="M11.5552 13.3343C11.5552 13.6287 11.4381 13.9116 11.2298 14.1199C11.0214 14.3282 10.739 14.4454 10.4441 14.4454C9.83069 14.4454 9.33301 13.9477 9.33301 13.3343C9.33301 12.7204 9.83069 12.2231 10.4441 12.2231C10.739 12.2231 11.0214 12.3403 11.2298 12.5486C11.4381 12.7569 11.5552 13.0393 11.5552 13.3343Z" fill="#FF5650"/>
<path d="M10 19C14.9706 19 19 14.9706 19 10C19 5.02944 14.9706 1 10 1C5.02944 1 1 5.02944 1 10C1 14.9706 5.02944 19 10 19Z" stroke="#FF5650" stroke-width="1.5" stroke-linecap="round" stroke-linejoin="round"/>
</svg>
