<svg width="91" height="14" viewBox="0 0 91 14" fill="none" xmlns="http://www.w3.org/2000/svg">
<path d="M7.80151 11.3971L12.1275 13.9492L10.9795 9.13922L14.8015 5.9029L9.76851 5.47869L7.80151 0.949219L5.83451 5.47869L0.801514 5.9029L4.61651 9.13922L3.47551 13.9492L7.80151 11.3971Z" fill="#FFD603"/>
<path d="M26.8015 11.3971L31.1275 13.9492L29.9795 9.13922L33.8015 5.9029L28.7685 5.47869L26.8015 0.949219L24.8345 5.47869L19.8015 5.9029L23.6165 9.13922L22.4755 13.9492L26.8015 11.3971Z" fill="#FFD603"/>
<path d="M45.8015 11.3971L50.1275 13.9492L48.9795 9.13922L52.8015 5.9029L47.7685 5.47869L45.8015 0.949219L43.8345 5.47869L38.8015 5.9029L42.6165 9.13922L41.4755 13.9492L45.8015 11.3971Z" fill="#FFD603"/>
<path d="M64.8015 11.3971L69.1275 13.9492L67.9795 9.13922L71.8015 5.9029L66.7685 5.47869L64.8015 0.949219L62.8345 5.47869L57.8015 5.9029L61.6165 9.13922L60.4755 13.9492L64.8015 11.3971Z" fill="#FFD603"/>
<path d="M83.8015 11.3971L88.1275 13.9492L86.9795 9.13922L90.8015 5.9029L85.7685 5.47869L83.8015 0.949219L81.8345 5.47869L76.8015 5.9029L80.6165 9.13922L79.4755 13.9492L83.8015 11.3971Z" fill="#FFD603"/>
</svg>
