<svg width="25" height="24" viewBox="0 0 25 24" fill="none" xmlns="http://www.w3.org/2000/svg">
<path d="M15.1492 6.44035C15.9909 6.60425 16.7644 7.01511 17.3708 7.62033C17.9772 8.22556 18.3888 8.99761 18.5531 9.83769M15.1492 3C16.8979 3.19389 18.5286 3.97549 19.7735 5.21645C21.0184 6.45741 21.8035 8.08398 22 9.82909M21.1383 16.6926V19.2728C21.1392 19.5124 21.0901 19.7495 20.9939 19.969C20.8978 20.1884 20.7568 20.3854 20.5799 20.5474C20.4031 20.7093 20.1943 20.8326 19.967 20.9093C19.7396 20.9861 19.4987 21.0146 19.2597 20.993C16.608 20.7054 14.0608 19.8011 11.8229 18.3526C9.74082 17.032 7.97557 15.2701 6.65252 13.192C5.19617 10.9482 4.28985 8.3936 4.00699 5.73508C3.98546 5.49723 4.01378 5.25752 4.09015 5.0312C4.16652 4.80488 4.28927 4.59691 4.45059 4.42054C4.6119 4.24416 4.80824 4.10324 5.02711 4.00675C5.24598 3.91026 5.48258 3.86031 5.72185 3.86009H8.30705C8.72525 3.85598 9.13069 4.00379 9.44778 4.27597C9.76487 4.54815 9.97198 4.92612 10.0305 5.33944C10.1396 6.16518 10.342 6.97595 10.6337 7.75628C10.7497 8.06413 10.7748 8.39869 10.706 8.72034C10.6373 9.04198 10.4776 9.33722 10.2459 9.57106L9.15155 10.6634C10.3783 12.8166 12.1646 14.5995 14.322 15.8239L15.4164 14.7316C15.6506 14.5003 15.9465 14.341 16.2687 14.2724C16.591 14.2038 16.9262 14.2288 17.2346 14.3445C18.0164 14.6357 18.8288 14.8377 19.6561 14.9466C20.0747 15.0055 20.457 15.216 20.7303 15.5379C21.0035 15.8598 21.1488 16.2708 21.1383 16.6926Z" stroke="#16489F" stroke-width="1.7" stroke-linecap="round" stroke-linejoin="round"/>
</svg>
