<svg width="24" height="24" viewBox="0 0 24 24" fill="none" xmlns="http://www.w3.org/2000/svg">
<rect x="4" y="4" width="16" height="16" rx="8" fill="#FF5650"/>
<path d="M15.9275 11.4632V12.5346C15.9275 12.6834 15.8754 12.8099 15.7712 12.9141C15.667 13.0182 15.5406 13.0703 15.3917 13.0703H13.0703V15.3917C13.0703 15.5406 13.0182 15.667 12.9141 15.7712C12.8099 15.8754 12.6834 15.9275 12.5346 15.9275H11.4632C11.3144 15.9275 11.1879 15.8754 11.0837 15.7712C10.9795 15.667 10.9275 15.5406 10.9275 15.3917V13.0703H8.60603C8.45722 13.0703 8.33073 13.0182 8.22656 12.9141C8.1224 12.8099 8.07031 12.6834 8.07031 12.5346V11.4632C8.07031 11.3144 8.1224 11.1879 8.22656 11.0837C8.33073 10.9795 8.45722 10.9275 8.60603 10.9275H10.9275V8.60603C10.9275 8.45722 10.9795 8.33073 11.0837 8.22656C11.1879 8.1224 11.3144 8.07031 11.4632 8.07031H12.5346C12.6834 8.07031 12.8099 8.1224 12.9141 8.22656C13.0182 8.33073 13.0703 8.45722 13.0703 8.60603V10.9275H15.3917C15.5406 10.9275 15.667 10.9795 15.7712 11.0837C15.8754 11.1879 15.9275 11.3144 15.9275 11.4632Z" fill="white"/>
</svg>
