<svg width="77" height="70" viewBox="0 0 77 70" fill="none" xmlns="http://www.w3.org/2000/svg">
<g clip-path="url(#clip0_58_2)">
<path d="M75.2455 61.6768H73.8502V27.4522C73.8502 26.7721 73.299 26.2211 72.6191 26.2211H71.2239V14.2383H71.3059C71.9858 14.2383 72.537 13.6873 72.537 13.0072V7.75454C72.537 7.07448 71.9858 6.52344 71.3059 6.52344H58.1742C57.4943 6.52344 56.9431 7.07448 56.9431 7.75454V13.0072C56.9431 13.6873 57.4943 14.2383 58.1742 14.2383H58.2563V26.2211H52.8394V14.2383H52.9215C53.6014 14.2383 54.1526 13.6873 54.1526 13.0072V7.75454C54.1526 7.07448 53.6014 6.52344 52.9215 6.52344H39.7897C39.1098 6.52344 38.5586 7.07448 38.5586 7.75454V13.0072C38.5586 13.6873 39.1098 14.2383 39.7897 14.2383H39.8718V26.2211H37.0813V23.5126C37.0813 21.3856 35.3509 19.6552 33.2239 19.6552H31.8286V18.2599C31.8286 16.1329 30.0982 14.4025 27.9712 14.4025H26.5759V13.0072C26.5759 12.3272 26.0247 11.7761 25.3448 11.7761H4.33401C3.65412 11.7761 3.10291 12.3272 3.10291 13.0072V61.6768H1.70766C1.02777 61.6768 0.476562 62.2278 0.476562 62.9079C0.476562 63.5879 1.02777 64.139 1.70766 64.139H75.2455C75.9254 64.139 76.4766 63.5879 76.4766 62.9079C76.4766 62.2278 75.9254 61.6768 75.2455 61.6768ZM71.388 40.666H5.56512V28.6833H71.388V40.666ZM26.5759 22.1174H29.3664V26.2211H26.5759V22.1174ZM59.4053 8.98564H70.0748V11.7761H59.4053V8.98564ZM60.7185 14.2383H68.7617V26.2211H60.7185V14.2383ZM41.0208 8.98564H51.6904V11.7761H41.0208V8.98564ZM42.334 14.2383H50.3772V26.2211H42.334V14.2383ZM33.2239 22.1174C33.9932 22.1174 34.6191 22.7433 34.6191 23.5126V26.2211H31.8286V22.1174H33.2239ZM27.9712 16.8647C28.7405 16.8647 29.3664 17.4906 29.3664 18.2599V19.6552H26.5759V16.8647H27.9712ZM5.56512 14.2383H24.1137V26.2211H5.56512V14.2383ZM5.56512 43.1282H71.388V61.6768H5.56512V43.1282Z" fill="#16489F"/>
<path d="M67.3682 45.918H9.58852C8.90863 45.918 8.35742 46.469 8.35742 47.1491V57.6545C8.35742 58.3345 8.90863 58.8856 9.58852 58.8856H67.3682C68.0481 58.8856 68.5993 58.3345 68.5993 57.6545V47.1491C68.5993 46.469 68.0481 45.918 67.3682 45.918ZM21.325 48.3802H24.1155V56.4234H21.325V48.3802ZM18.8628 56.4234H16.0723V48.3802H18.8628V56.4234ZM26.5777 48.3802H29.3682V56.4234H26.5777V48.3802ZM31.8304 48.3802H34.6209V56.4234H31.8304V48.3802ZM37.0831 48.3802H39.8736V56.4234H37.0831V48.3802ZM42.3358 48.3802H45.1263V56.4234H42.3358V48.3802ZM47.5885 48.3802H50.379V56.4234H47.5885V48.3802ZM52.8412 48.3802H55.6317V56.4234H52.8412V48.3802ZM58.0939 48.3802H60.8844V56.4234H58.0939V48.3802ZM10.8196 48.3802H13.6101V56.4234H10.8196V48.3802ZM66.1371 56.4234H63.3466V48.3802H66.1371V56.4234Z" fill="#16489F"/>
<path d="M9.58852 31.4746C8.90863 31.4746 8.35742 32.0257 8.35742 32.7057V36.6452C8.35742 37.3253 8.90863 37.8763 9.58852 37.8763C10.2684 37.8763 10.8196 37.3253 10.8196 36.6452V32.7057C10.8196 32.0257 10.2684 31.4746 9.58852 31.4746Z" fill="#16489F"/>
<path d="M14.8424 31.4746C14.1625 31.4746 13.6113 32.0257 13.6113 32.7057V36.6452C13.6113 37.3253 14.1625 37.8763 14.8424 37.8763C15.5223 37.8763 16.0735 37.3253 16.0735 36.6452V32.7057C16.0735 32.0257 15.5223 31.4746 14.8424 31.4746Z" fill="#16489F"/>
<path d="M20.0915 31.4746C19.4116 31.4746 18.8604 32.0257 18.8604 32.7057V36.6452C18.8604 37.3253 19.4116 37.8763 20.0915 37.8763C20.7713 37.8763 21.3226 37.3253 21.3226 36.6452V32.7057C21.3226 32.0257 20.7713 31.4746 20.0915 31.4746Z" fill="#16489F"/>
<path d="M9.58852 17.0264C8.90863 17.0264 8.35742 17.5774 8.35742 18.2575V22.197C8.35742 22.8771 8.90863 23.4281 9.58852 23.4281C10.2684 23.4281 10.8196 22.8771 10.8196 22.197V18.2575C10.8196 17.5774 10.2684 17.0264 9.58852 17.0264Z" fill="#16489F"/>
<path d="M14.8424 17.0264C14.1625 17.0264 13.6113 17.5774 13.6113 18.2575V22.197C13.6113 22.8771 14.1625 23.4281 14.8424 23.4281C15.5223 23.4281 16.0735 22.8771 16.0735 22.197V18.2575C16.0735 17.5774 15.5223 17.0264 14.8424 17.0264Z" fill="#16489F"/>
<path d="M20.0915 17.0264C19.4116 17.0264 18.8604 17.5774 18.8604 18.2575V22.197C18.8604 22.8771 19.4116 23.4281 20.0915 23.4281C20.7713 23.4281 21.3226 22.8771 21.3226 22.197V18.2575C21.3226 17.5774 20.7713 17.0264 20.0915 17.0264Z" fill="#16489F"/>
<path d="M25.3454 31.4746C24.6655 31.4746 24.1143 32.0257 24.1143 32.7057V36.6452C24.1143 37.3253 24.6655 37.8763 25.3454 37.8763C26.0253 37.8763 26.5765 37.3253 26.5765 36.6452V32.7057C26.5765 32.0257 26.0253 31.4746 25.3454 31.4746Z" fill="#16489F"/>
<path d="M30.5993 31.4746C29.9194 31.4746 29.3682 32.0257 29.3682 32.7057V36.6452C29.3682 37.3253 29.9194 37.8763 30.5993 37.8763C31.2792 37.8763 31.8304 37.3253 31.8304 36.6452V32.7057C31.8304 32.0257 31.2792 31.4746 30.5993 31.4746Z" fill="#16489F"/>
<path d="M35.8483 31.4746C35.1684 31.4746 34.6172 32.0257 34.6172 32.7057V36.6452C34.6172 37.3253 35.1684 37.8763 35.8483 37.8763C36.5282 37.8763 37.0794 37.3253 37.0794 36.6452V32.7057C37.0794 32.0257 36.5282 31.4746 35.8483 31.4746Z" fill="#16489F"/>
<path d="M41.1022 31.4746C40.4223 31.4746 39.8711 32.0257 39.8711 32.7057V36.6452C39.8711 37.3253 40.4223 37.8763 41.1022 37.8763C41.7821 37.8763 42.3333 37.3253 42.3333 36.6452V32.7057C42.3333 32.0257 41.7821 31.4746 41.1022 31.4746Z" fill="#16489F"/>
<path d="M46.3561 31.4746C45.6762 31.4746 45.125 32.0257 45.125 32.7057V36.6452C45.125 37.3253 45.6762 37.8763 46.3561 37.8763C47.036 37.8763 47.5872 37.3253 47.5872 36.6452V32.7057C47.5872 32.0257 47.036 31.4746 46.3561 31.4746Z" fill="#16489F"/>
<path d="M51.61 31.4746C50.9301 31.4746 50.3789 32.0257 50.3789 32.7057V36.6452C50.3789 37.3253 50.9301 37.8763 51.61 37.8763C52.2899 37.8763 52.8411 37.3253 52.8411 36.6452V32.7057C52.8411 32.0257 52.2899 31.4746 51.61 31.4746Z" fill="#16489F"/>
<path d="M56.859 31.4746C56.1791 31.4746 55.6279 32.0257 55.6279 32.7057V36.6452C55.6279 37.3253 56.1791 37.8763 56.859 37.8763C57.5389 37.8763 58.0901 37.3253 58.0901 36.6452V32.7057C58.0901 32.0257 57.5389 31.4746 56.859 31.4746Z" fill="#16489F"/>
<path d="M62.1129 31.4746C61.433 31.4746 60.8818 32.0257 60.8818 32.7057V36.6452C60.8818 37.3253 61.433 37.8763 62.1129 37.8763C62.7928 37.8763 63.344 37.3253 63.344 36.6452V32.7057C63.344 32.0257 62.7928 31.4746 62.1129 31.4746Z" fill="#16489F"/>
<path d="M67.3668 31.4746C66.687 31.4746 66.1357 32.0257 66.1357 32.7057V36.6452C66.1357 37.3253 66.687 37.8763 67.3668 37.8763C68.0467 37.8763 68.5979 37.3253 68.5979 36.6452V32.7057C68.5979 32.0257 68.0467 31.4746 67.3668 31.4746Z" fill="#16489F"/>
</g>
<defs>
<clipPath id="clip0_58_2">
<rect width="76.25" height="70" fill="white" transform="translate(0.474609)"/>
</clipPath>
</defs>
</svg>
