<svg width="87" height="70" viewBox="0 0 87 70" fill="none" xmlns="http://www.w3.org/2000/svg">
<g clip-path="url(#clip0_58_5)">
<path d="M20.7301 45.8643C18.4555 45.8664 16.2748 46.7709 14.6664 48.3793C13.0581 49.9877 12.1535 52.1684 12.1514 54.443C12.1514 59.1735 15.9995 63.0217 20.7301 63.0217C25.462 63.0217 29.3088 59.1735 29.3088 54.443C29.3088 49.7124 25.4606 45.8643 20.7301 45.8643ZM20.7301 60.1621C19.2137 60.1607 17.7599 59.5577 16.6876 58.4854C15.6154 57.4132 15.0124 55.9594 15.0109 54.443C15.0109 51.2893 17.5764 48.7238 20.7301 48.7238C23.8838 48.7238 26.4492 51.2893 26.4492 54.443C26.4492 57.5967 23.8838 60.1621 20.7301 60.1621ZM69.3428 45.8643C67.0683 45.8664 64.8875 46.7709 63.2792 48.3793C61.6708 49.9877 60.7663 52.1684 60.7641 54.443C60.7641 59.1735 64.6109 63.0217 69.3428 63.0217C74.0734 63.0217 77.9216 59.1735 77.9216 54.443C77.9216 49.7124 74.0734 45.8643 69.3428 45.8643ZM69.3428 60.1621C67.8265 60.1607 66.3726 59.5577 65.3004 58.4854C64.2282 57.4132 63.6252 55.9594 63.6237 54.443C63.6237 51.2893 66.1892 48.7238 69.3428 48.7238C72.4966 48.7238 75.062 51.2893 75.062 54.443C75.062 57.5967 72.4966 60.1621 69.3428 60.1621Z" fill="#16489F"/>
<path d="M86.2748 37.9439L73.4067 17.9268C73.2772 17.7256 73.0993 17.56 72.8892 17.4453C72.6792 17.3306 72.4437 17.2705 72.2043 17.2705H56.4767C55.6869 17.2705 55.0469 17.9105 55.0469 18.7003V54.445C55.0469 55.2348 55.6869 55.8748 56.4767 55.8748H62.1958V53.0152H57.9064V20.1301H71.4241L83.6426 39.1381V53.0152H76.4937V55.8748H85.0724C85.8622 55.8748 86.5022 55.2348 86.5022 54.445V38.7173C86.5022 38.445 86.4232 38.1726 86.2748 37.9439Z" fill="#16489F"/>
<path d="M63.6216 35.8565V25.848H75.0599V22.9884H62.1918C61.402 22.9884 60.762 23.6284 60.762 24.4182V37.2863C60.762 38.0761 61.402 38.7161 62.1918 38.7161H83.6386V35.8565H63.6216ZM56.4726 7.26074H2.14072C1.35094 7.26074 0.710938 7.90074 0.710938 8.69053V54.4437C0.710938 55.2335 1.35094 55.8735 2.14072 55.8735H13.579V53.0139H3.57051V10.1203H55.0429V53.0139H27.8769V55.8735H56.4726C57.2624 55.8735 57.9024 55.2335 57.9024 54.4437V8.69053C57.9024 7.90074 57.2624 7.26074 56.4726 7.26074Z" fill="#16489F"/>
<path d="M10.7194 47.2913H2.14072V50.1509H10.7194V47.2913ZM55.0429 47.2913H30.7365V50.1509H55.0429V47.2913ZM85.0684 47.2913H79.3492V50.1509H85.0684V47.2913ZM56.4726 12.9764H6.43009V15.836H56.4726V12.9764ZM22.1577 53.0104H19.2982V55.87H22.1577V53.0104ZM70.7705 53.0104H67.9109V55.87H70.7705V53.0104ZM26.4471 1.53809H6.43009V4.39766H26.4471V1.53809ZM3.57051 1.53809H0.710938V4.39766H3.57051V1.53809Z" fill="#16489F"/>
</g>
<defs>
<clipPath id="clip0_58_5">
<rect width="86.25" height="70" fill="white" transform="translate(0.474609)"/>
</clipPath>
</defs>
</svg>
