<svg width="71" height="70" viewBox="0 0 71 70" fill="none" xmlns="http://www.w3.org/2000/svg">
<path d="M65.9709 19.7888L36.1632 4.37104C35.867 4.21877 35.516 4.21877 35.2191 4.37104L5.41219 19.7888C5.24463 19.8754 5.10414 20.0065 5.00611 20.1677C4.90807 20.3288 4.85627 20.5138 4.85638 20.7025V25.8417C4.85628 26.0181 4.90159 26.1916 4.98796 26.3455C5.07433 26.4993 5.19885 26.6283 5.34952 26.7201C5.5002 26.8119 5.67197 26.8634 5.84829 26.8695C6.02462 26.8757 6.19956 26.8364 6.35629 26.7554L8.96779 25.4039V64.9C8.96779 65.4673 9.42842 65.9279 9.99564 65.9279H16.1627C16.4353 65.9279 16.6968 65.8196 16.8895 65.6268C17.0823 65.4341 17.1906 65.1726 17.1906 64.9V28.9253H54.1932V64.9C54.1932 65.4673 54.6539 65.9279 55.2211 65.9279H61.3882C61.6608 65.9279 61.9222 65.8196 62.115 65.6268C62.3078 65.4341 62.416 65.1726 62.416 64.9V25.4039L65.0275 26.7561C65.1843 26.8371 65.3592 26.8765 65.5355 26.8703C65.7119 26.8641 65.8836 26.8127 66.0343 26.7209C66.185 26.6291 66.3095 26.5001 66.3959 26.3462C66.4822 26.1924 66.5275 26.0189 66.5274 25.8425V20.7025C66.5276 20.5138 66.4758 20.3288 66.3777 20.1677C66.2797 20.0065 66.1384 19.8754 65.9709 19.7888ZM15.1341 63.8722H12.4769L15.1341 61.2142V63.8722ZM11.0227 62.4187V59.7616H13.6807L11.0227 62.4187ZM15.1341 57.7058H12.4769L15.1341 55.0471V57.7058ZM11.0227 56.2516V53.5944H13.6807L11.0227 56.2516ZM15.1341 51.5387H12.4769L15.1341 48.88V51.5387ZM11.0227 50.0845V47.4273H13.6807L11.0227 50.0845ZM15.1341 45.3716H12.4769L15.1341 42.7129V45.3716ZM11.0227 43.9174V41.2602H13.6807L11.0227 43.9174ZM15.1341 39.2045H12.4769L15.1341 36.5458V39.2045ZM11.0227 37.7503V35.0931H13.6807L11.0227 37.7503ZM15.1341 33.0374H12.4769L15.1341 30.3787V33.0374ZM11.0227 31.5832V28.926H13.6807L11.0227 31.5832ZM15.1341 26.8703H11.0227V24.341L15.1341 22.2145V26.8703ZM54.1925 26.8703H52.1368V22.7589H50.0811V26.8703H46.9975V19.6754H44.9418V26.8703H41.8583V16.591H39.8026V26.8696H36.719V14.5353H34.6633V26.8696H31.5797V16.591H29.524V26.8696H26.4405V19.6746H24.3848V26.8696H21.3012V22.7582H19.2455V26.8696H17.1898V21.1501L35.6912 11.5812L54.1925 21.1501V26.8703ZM56.2482 63.8722V61.2142L58.9076 63.8722H56.2482ZM60.3596 62.4187L57.7024 59.7616H60.3596V62.4187ZM56.2482 57.7058V55.0471L58.9076 57.7051L56.2482 57.7058ZM60.3596 56.2516L57.7024 53.5944H60.3596V56.2516ZM56.2482 51.5387V48.88L58.9076 51.538L56.2482 51.5387ZM60.3596 50.0845L57.7024 47.4273H60.3596V50.0845ZM56.2482 45.3716V42.7129L58.9076 45.3709L56.2482 45.3716ZM60.3596 43.9174L57.7024 41.2602H60.3596V43.9174ZM56.2482 39.2045V36.5458L58.9076 39.2038L56.2482 39.2045ZM60.3596 37.7503L57.7024 35.0931H60.3596V37.7503ZM56.2482 33.0374V30.3787L58.9076 33.0367L56.2482 33.0374ZM60.3596 31.5832L57.7024 28.926H60.3596V31.5832ZM60.3596 26.8703H56.2482V22.2145L60.3596 24.3418V26.8703ZM64.471 24.1522L36.1632 9.5103C36.0173 9.43486 35.8554 9.39549 35.6912 9.39549C35.5269 9.39549 35.365 9.43486 35.2191 9.5103L6.91209 24.1515V21.3268L35.6919 6.44197L64.4717 21.3268L64.471 24.1522Z" fill="#16489F"/>
<path d="M51.1076 33.0371H40.8291C40.5564 33.0371 40.295 33.1453 40.1023 33.3381C39.9095 33.5309 39.8012 33.7923 39.8012 34.0649V43.3156H30.5505C30.2779 43.3156 30.0165 43.4239 29.8237 43.6166C29.631 43.8094 29.5227 44.0708 29.5227 44.3434V53.5941H20.272C19.9994 53.5941 19.738 53.7024 19.5452 53.8951C19.3525 54.0879 19.2442 54.3493 19.2442 54.6219V64.9004C19.2442 65.4677 19.7048 65.9283 20.272 65.9283H51.1076C51.3802 65.9283 51.6416 65.82 51.8344 65.6272C52.0271 65.4345 52.1354 65.173 52.1354 64.9004V34.0649C52.1354 33.7923 52.0271 33.5309 51.8344 33.3381C51.6416 33.1453 51.3802 33.0371 51.1076 33.0371ZM29.5227 63.8726H21.2999V55.6498H29.5227V63.8726ZM39.8012 63.8726H31.5784V55.6498H39.8012V63.8726ZM39.8012 53.5941H31.5784V45.3713H39.8012V53.5941ZM50.0797 63.8726H41.8569V55.6498H50.0797V63.8726ZM50.0797 53.5941H41.8569V45.3713H50.0797V53.5941ZM50.0797 43.3156H41.8569V35.0928H50.0797V43.3156Z" fill="#16489F"/>
<path d="M48.0234 37.1479H43.912V39.2036H48.0234V37.1479ZM48.0234 47.4264H43.912V49.4821H48.0234V47.4264ZM48.0234 57.7049H43.912V59.7606H48.0234V57.7049ZM37.7449 57.7049H33.6335V59.7606H37.7449V57.7049ZM27.4664 57.7049H23.355V59.7606H27.4664V57.7049ZM37.7449 47.4264H33.6335V49.4821H37.7449V47.4264Z" fill="#16489F"/>
</svg>
