<svg width="71" height="70" viewBox="0 0 71 70" fill="none" xmlns="http://www.w3.org/2000/svg">
<path d="M33.1328 5.03072C31.4648 5.16744 29.0586 5.65963 27.3359 6.2065C19.4609 8.77682 13.1992 14.8471 10.2734 22.7495L9.72656 24.2534L8.03125 24.3354C6.63672 24.3901 6.25391 24.4448 5.76172 24.6909C4.83203 25.1557 4.17578 25.7846 3.73828 26.7143L3.32812 27.562V31.8003C3.32812 35.9292 3.32813 36.0385 3.62891 36.6401C4.06641 37.5971 4.69531 38.2807 5.57031 38.7456C6.33594 39.1557 6.41797 39.1831 8.05859 39.2104C9.64453 39.2651 9.75391 39.2651 9.86328 39.5385C9.91797 39.7026 10.1914 40.3862 10.4375 41.0698C12.3789 46.3745 16.0977 51.0776 20.8555 54.1948C22.4141 55.2065 23.4258 55.7807 24.9023 56.4096C26.5156 57.0932 27.0078 57.0932 27.3633 56.4096C27.6367 55.8901 27.418 55.2612 26.8711 55.0151C26.6523 54.9057 25.9961 54.6323 25.4219 54.3588C20.8008 52.3081 16.8633 48.726 14.2109 44.269C11.7227 40.0854 10.5469 35.0268 10.875 30.2417C11.0117 28.2182 11.1758 27.1792 11.75 24.9917L11.8594 24.5268L12.8438 24.4448C16.8086 24.0893 20.8008 22.3667 23.9453 19.6049L24.7383 18.9213L25.5859 19.7143C28.6211 22.4487 32.832 24.3081 37.8633 25.101C39.8594 25.4292 45.3008 25.4292 47.5977 25.101C50.9883 24.6362 53.832 23.9526 56.8125 22.9409C57.7422 22.6128 58.5352 22.394 58.5625 22.4213C58.5898 22.4487 58.8359 23.1323 59.1094 23.9253C61.3789 30.6518 60.6133 38.1713 57.0039 44.269C54.4062 48.6987 50.2773 52.3901 45.7109 54.4135C45.1914 54.6596 44.5898 54.9057 44.3711 55.0151C43.8516 55.2612 43.6055 55.8081 43.8242 56.3276C44.1523 57.1206 44.6719 57.1479 46.3398 56.437C52.9844 53.6206 58.4531 47.7417 60.9688 40.6596L61.4336 39.3471L61.9258 39.3198C62.1992 39.2924 62.4727 39.3198 62.5273 39.3745C62.6914 39.5385 62.418 42.601 62.0898 44.0776C60.0938 52.9643 52.1914 59.5268 43.2227 59.7729L41.9102 59.8003L41.7461 59.2534C41.4727 58.5151 40.4609 57.4213 39.5859 56.9838L38.875 56.6284H32.3672L31.6562 56.9838C30.7539 57.4213 29.9609 58.2143 29.5508 59.0893C29.2773 59.6635 29.2227 59.9643 29.2227 60.8667C29.2227 62.2338 29.6055 63.0815 30.6172 64.0112C31.7383 65.0229 32.0938 65.1049 35.6758 65.1049H38.7109L39.4766 64.7495C40.543 64.2573 41.418 63.3276 41.8008 62.2612C41.9102 61.9331 41.9375 61.9331 43.5508 61.851C49.0742 61.5776 54.1328 59.3628 58.0977 55.4253C62.0898 51.4604 64.3594 46.4018 64.6328 40.7963L64.7148 39.1831L65.3984 38.9096C66.2461 38.5542 67.0664 37.7338 67.5586 36.7768L67.9141 36.0659V27.5893L67.5039 26.7417C67.0391 25.812 66.4102 25.1831 65.4805 24.7182C64.9883 24.4721 64.6328 24.4174 63.2109 24.3628L61.543 24.3081L61.1328 23.1596C60.1484 20.3979 58.8906 18.0463 57.25 15.8315C51.5898 8.28463 42.4844 4.21041 33.1328 5.03072ZM38.7656 7.21822C45.793 8.14791 52.1094 12.0307 56.0195 17.8276C56.9766 19.2495 57.6055 20.2885 57.5234 20.3432C57.3867 20.4799 55.582 21.1088 54.0781 21.5463C50.6055 22.5581 47.4883 23.0503 43.7969 23.1596C36.1406 23.3784 30.6445 21.5737 26.1875 17.3628C25.6406 16.8432 25.0391 16.3784 24.9023 16.3237C24.4922 16.187 24.1914 16.4057 22.8789 17.6362C20.9922 19.4409 18.9414 20.6713 16.3164 21.5463C15.168 21.9292 12.8984 22.394 12.7617 22.2573C12.7344 22.2299 12.8984 21.7651 13.1445 21.2182C16.7266 13.6713 23.9727 8.36666 32.2852 7.21822C33.9531 6.99947 37.0703 6.99947 38.7656 7.21822ZM9.20703 26.4135C9.20703 26.4409 9.09766 27.0424 8.98828 27.726C8.6875 29.4487 8.6875 34.0151 8.98828 35.7378C9.09766 36.4213 9.20703 37.0229 9.20703 37.1049C9.20703 37.187 8.79688 37.2417 8.22266 37.2417C6.80078 37.2417 5.89844 36.7495 5.54297 35.8198C5.35156 35.3276 5.35156 28.3003 5.54297 27.8081C5.70703 27.3432 6.25391 26.769 6.71875 26.5503C7.10156 26.3862 9.20703 26.2768 9.20703 26.4135ZM64.4141 26.5229C64.9062 26.7143 65.4531 27.2885 65.6172 27.7807C65.8086 28.2729 65.8086 35.3003 65.6172 35.7924C65.2617 36.7495 64.3594 37.2143 62.9648 37.2143C62.3906 37.2143 61.9805 37.1596 61.9805 37.0776C61.9805 36.9956 62.0898 36.394 62.1992 35.7104C62.5 34.0151 62.5 29.4213 62.1992 27.6987C62.0898 27.0151 61.9805 26.4409 61.9805 26.3862C61.9805 26.2768 64.0312 26.3588 64.4141 26.5229ZM38.957 59.0073C39.6406 59.4995 39.832 59.8823 39.832 60.812C39.832 61.7963 39.5312 62.3159 38.7656 62.726C38.3281 62.9448 38 62.9721 35.5938 62.9721C33.3789 62.9721 32.8594 62.9448 32.4766 62.7807C31.8477 62.4799 31.4102 61.8237 31.3281 61.0854C31.2461 60.2924 31.3555 59.937 31.7656 59.4448C32.3672 58.7338 32.5859 58.7065 35.7305 58.7338C38.4102 58.7612 38.6289 58.7612 38.957 59.0073Z" fill="#16489F"/>
<path d="M23.2601 31.0357C21.8929 31.5826 20.7718 33.0045 20.6078 34.399C20.4984 35.3287 20.6078 35.6841 21.1273 35.9029C21.4828 36.067 21.6195 36.067 21.9476 35.9302C22.4125 35.7388 22.5218 35.5748 22.6312 34.7818C22.6859 34.4537 22.85 34.0162 23.014 33.7701C23.3421 33.2779 24.2171 32.7857 24.764 32.7857C25.1742 32.7857 25.9398 33.0865 26.2953 33.3873C26.6234 33.6881 27.0062 34.5357 27.0062 34.9732C27.0062 35.192 27.1429 35.4654 27.389 35.7115C27.7171 36.0396 27.8539 36.067 28.182 36.0123C28.8382 35.8756 29.057 35.5474 29.0296 34.7545C29.0023 33.2779 28.1273 31.9381 26.6781 31.1724C25.8031 30.7349 24.2171 30.6529 23.2601 31.0357Z" fill="#16489F"/>
<path d="M45.1915 30.8978C43.4141 31.4447 42.1837 33.0033 42.129 34.8079C42.1016 35.5736 42.3477 35.9017 43.004 36.0384C43.3321 36.0931 43.4688 36.0384 43.797 35.7376C44.043 35.4642 44.1798 35.2454 44.1798 34.9447C44.1798 34.5072 44.5352 33.7142 44.8907 33.4134C45.2188 33.1126 45.9845 32.8118 46.3946 32.8118C46.9415 32.8118 47.8165 33.304 48.1446 33.7962C48.3087 34.0423 48.4727 34.5072 48.5274 34.8079C48.6368 35.5736 48.7462 35.765 49.211 35.9564C49.5391 36.0931 49.6759 36.0931 50.0313 35.929C50.5509 35.6829 50.6602 35.3275 50.5509 34.4251C50.3868 33.0033 49.2384 31.5814 47.8712 31.0618C47.1876 30.7611 45.8204 30.7064 45.1915 30.8978Z" fill="#16489F"/>
<path d="M30.6191 46.0742C30.3457 46.293 30.291 46.4297 30.291 46.8945C30.291 47.6055 30.5098 48.043 31.1934 48.6445C32.2051 49.5742 33.5723 49.9844 35.5957 49.9844C37.6191 49.9844 38.9863 49.5742 39.9981 48.6445C40.6816 48.043 40.9004 47.6055 40.9004 46.8945C40.9004 46.4297 40.8457 46.293 40.5723 46.0742C40.3809 45.9102 40.0801 45.8008 39.8613 45.8008C39.4238 45.8008 38.877 46.293 38.877 46.6758C38.877 47.3594 37.4277 47.8789 35.5957 47.8789C33.7637 47.8789 32.3145 47.3594 32.3145 46.6758C32.3145 46.293 31.7676 45.8008 31.3301 45.8008C31.1113 45.8008 30.8105 45.9102 30.6191 46.0742Z" fill="#16489F"/>
</svg>
