<svg width="71" height="70" viewBox="0 0 71 70" fill="none" xmlns="http://www.w3.org/2000/svg">
<path d="M32.0088 2.80989C24.4072 3.60286 17.5713 6.82942 12.2393 12.1614C7.12598 17.2747 4.03613 23.5638 2.96973 31.0286C2.75098 32.5325 2.75098 37.4818 2.96973 38.9857C4.03613 46.4779 7.09863 52.7396 12.2393 57.8529C17.3799 62.9661 23.6143 66.0286 31.1064 67.1224C32.583 67.3411 37.5596 67.3411 39.0635 67.1224C44.2588 66.3841 48.6885 64.7435 52.8994 61.9818C56.3447 59.7396 59.8174 56.2396 62.0596 52.8216C64.8213 48.6107 66.4346 44.2083 67.2002 38.9857C67.4189 37.4818 67.4189 32.5325 67.2002 31.0286C66.1338 23.5365 63.0713 17.2747 57.9307 12.1614C52.9268 7.15754 46.8291 4.09504 39.6377 3.00129C38.0518 2.7552 33.6221 2.61848 32.0088 2.80989ZM39.3369 4.99739C45.8994 5.98176 51.915 8.98957 56.5361 13.6107C61.3213 18.4232 64.2471 24.3841 65.1768 31.22C65.2861 31.8763 65.3408 33.5443 65.3408 35.0208C65.3408 37.7552 65.2041 39.0677 64.6846 41.4739C63.9736 44.8099 62.251 48.8568 60.3643 51.7005C55.415 59.1107 47.7861 63.8685 38.8721 65.099C37.3135 65.3177 32.8564 65.3177 31.2978 65.099C26.5127 64.4427 22.1377 62.8021 18.2822 60.2318C11.0361 55.3372 6.25098 47.6536 5.02051 38.7943C4.80176 37.2357 4.80176 32.6419 5.02051 31.1654C6.46973 21.2122 12.1025 13.0365 20.6885 8.36067C24.3525 6.36457 27.8252 5.35286 32.8018 4.77864C33.7588 4.66926 38.1064 4.80598 39.3369 4.99739Z" fill="#16489F"/>
<path d="M33.7021 12.2142C32.2529 12.597 31.1045 13.5814 30.3936 15.0306C30.0107 15.8236 29.9834 15.9603 29.9834 17.1908C29.9834 18.4759 29.9834 18.558 30.4756 19.4876C31.0225 20.6087 31.8154 21.4017 32.9365 21.9486C33.5928 22.2767 33.7568 22.304 35.0967 22.304C36.4365 22.304 36.6006 22.2767 37.2568 21.9486C38.3779 21.4017 39.1709 20.6087 39.7178 19.4876C40.1826 18.558 40.21 18.4759 40.21 17.1908C40.21 15.9329 40.1826 15.8236 39.7998 15.0306C38.6514 12.7064 36.1631 11.5579 33.7021 12.2142ZM35.999 14.1556C37.2021 14.4837 38.2412 15.8509 38.2412 17.0814C38.2412 18.0111 38.0225 18.64 37.4209 19.2962C36.7646 20.0619 36.1084 20.3353 35.0693 20.3353C34.0303 20.3353 33.4014 20.0345 32.7178 19.2962C31.8154 18.2845 31.6514 16.972 32.2529 15.7962C33.0186 14.4017 34.4951 13.7454 35.999 14.1556Z" fill="#16489F"/>
<path d="M28.4805 23.8095C26.293 24.3564 24.9258 25.6962 24.5977 27.6649C24.543 28.1024 24.4609 29.8251 24.4609 31.4657V34.4735H34.8242L34.0859 32.8603C33.6758 31.9853 32.5547 29.5517 31.5977 27.4735C29.6289 23.2353 29.8477 23.4814 28.4805 23.8095ZM29.2734 27.2821C29.6016 28.0204 30.2852 29.4696 30.7773 30.536L31.6797 32.4774H26.4844L26.5391 30.0985C26.5664 27.9931 26.6211 27.6923 26.8672 27.2274C27.2227 26.5165 28.0977 25.8603 28.5078 25.9423C28.5898 25.9696 28.9453 26.5712 29.2734 27.2821Z" fill="#16489F"/>
<path d="M40.1529 24.1111C40.0162 24.3845 38.9498 26.7361 37.7467 29.3337C36.5435 31.9314 35.5318 34.1736 35.4498 34.2829C35.3404 34.5017 35.6139 34.5017 40.5084 34.5017H45.6764V31.4392C45.6764 29.7439 45.6217 28.0212 45.5396 27.6384C45.2115 25.6697 43.8443 24.3298 41.6568 23.8103C40.5084 23.5642 40.4264 23.5642 40.1529 24.1111ZM42.4498 26.2712C43.4615 26.9275 43.5982 27.3376 43.6529 30.0993L43.7076 32.4783H41.1099C38.649 32.4783 38.5123 32.4783 38.6217 32.2595C38.7584 31.9861 40.9732 27.1736 41.3014 26.4626C41.4381 26.1618 41.6021 25.9431 41.7115 25.9431C41.7935 25.9158 42.1217 26.0798 42.4498 26.2712Z" fill="#16489F"/>
<path d="M31.822 23.8923C31.7127 23.947 34.9666 31.3571 35.1033 31.3571C35.1853 31.3571 38.5212 23.9743 38.4392 23.9196C38.3845 23.8376 31.9314 23.8103 31.822 23.8923Z" fill="#16489F"/>
<path d="M22.6006 54.0811L25.6084 54.0264C28.5068 53.999 28.6162 53.9717 29.2451 53.6709C29.5732 53.5068 30.0107 53.1787 30.1475 52.9326C30.5303 52.3584 30.7217 50.9912 30.749 48.9404C30.749 46.8896 30.5576 46.0967 29.9014 45.4404C29.2451 44.7842 28.8076 44.7021 25.5811 44.6201L22.6006 44.5654V54.0811ZM27.9326 46.2607C28.6982 46.4521 28.835 46.8623 28.8896 49.0225C28.9443 51.1279 28.8076 51.8115 28.2334 52.2217C27.9053 52.4678 27.6592 52.4951 26.1006 52.5225L24.3506 52.5771V46.124H25.9092C26.7568 46.124 27.6592 46.1787 27.9326 46.2607Z" fill="#16489F"/>
<path d="M31.8727 44.7549C31.8453 44.837 31.818 46.9698 31.8453 49.458L31.8727 53.9971L38.3805 54.0518V52.5479H33.732V49.8955H38.1617L38.107 48.583L33.7594 48.5284V46.1221H38.4352L38.4078 45.3838L38.3805 44.6729L35.1813 44.6455C32.6383 44.5909 31.9273 44.6182 31.8727 44.7549Z" fill="#16489F"/>
<path d="M38.8994 44.7014C38.8994 44.7561 39.5557 46.8889 40.376 49.4592L41.8525 54.1076L44.5869 54.0529L46.0361 49.6232C46.8291 47.1896 47.5127 45.0842 47.54 44.9201C47.5947 44.6467 47.5674 44.6467 46.6924 44.6467H45.7627L44.8057 47.5725C44.2861 49.1857 43.7119 50.9631 43.5479 51.51C43.3838 52.0568 43.2197 52.4396 43.1924 52.385C43.1377 52.3303 43.001 51.8381 42.8369 51.2639C42.6729 50.6896 42.1533 48.9943 41.6338 47.4631L40.7041 44.674L39.8018 44.6467C39.2822 44.592 38.8994 44.6467 38.8994 44.7014Z" fill="#16489F"/>
</svg>
