<svg width="28" height="27" viewBox="0 0 28 27" fill="none" xmlns="http://www.w3.org/2000/svg">
<rect x="0.599609" width="27" height="27" rx="2.16" fill="#E5EEFB"/>
<path d="M3.73086 13.1671V9.1322C3.73086 8.72554 4.06052 8.39588 4.46717 8.39588H17.8632C18.2699 8.39588 18.5995 8.72554 18.5995 9.1322V20.8764M2.70002 15.6755H6.9289M2.7 18.2208H3.95175M3.95175 18.2208H4.90403M3.95175 18.2208V20.8764H5.60353M9.87416 20.8764H18.5995M18.5995 20.8764H19.299M18.5995 11.7829H22.6861L23.3856 14.9859M18.5995 14.9859H23.091C24.311 14.9859 25.3 15.9749 25.3 17.1949V20.8764H23.5697M11.1259 18.2576H16.8324M5.5299 6.3342L10.0582 8.24862M15.9488 6.3342L11.4204 8.24862M14.3766 11.7798L10.4527 15.8566L8.66916 14.0035M10.5363 8.05128L12.0317 3.9483C12.2067 3.46808 12.6229 3.11646 13.1256 3.02415C14.0225 2.85947 14.8449 3.55839 14.8271 4.47003L14.8264 4.51009C14.8168 5.00069 14.5637 5.45436 14.1513 5.72027L10.5363 8.05128ZM10.8702 7.98181L7.17577 5.66865C6.74215 5.39715 6.485 4.91608 6.50014 4.4047C6.52708 3.49452 7.38101 2.83721 8.26779 3.04406L8.30684 3.05317C8.78518 3.16475 9.17649 3.5073 9.35037 3.96667L10.8702 7.98181ZM9.83735 21.2906C9.83735 22.4445 8.90194 23.3799 7.74805 23.3799C6.59416 23.3799 5.65875 22.4445 5.65875 21.2906C5.65875 20.1367 6.59416 19.2013 7.74805 19.2013C8.90194 19.2013 9.83735 20.1367 9.83735 21.2906ZM23.6249 21.2906C23.6249 22.4445 22.6895 23.3799 21.5356 23.3799C20.3817 23.3799 19.4463 22.4445 19.4463 21.2906C19.4463 20.1367 20.3817 19.2013 21.5356 19.2013C22.6895 19.2013 23.6249 20.1367 23.6249 21.2906ZM8.20825 21.2906C8.20825 21.5448 8.00221 21.7508 7.74805 21.7508C7.49389 21.7508 7.28785 21.5448 7.28785 21.2906C7.28785 21.0365 7.49389 20.8304 7.74805 20.8304C8.00221 20.8304 8.20825 21.0365 8.20825 21.2906ZM21.9958 21.2906C21.9958 21.5448 21.7897 21.7508 21.5356 21.7508C21.2814 21.7508 21.0754 21.5448 21.0754 21.2906C21.0754 21.0365 21.2814 20.8304 21.5356 20.8304C21.7897 20.8304 21.9958 21.0365 21.9958 21.2906Z" stroke="#FF5650" stroke-width="1.3" stroke-linecap="round" stroke-linejoin="round"/>
</svg>
