<svg width="28" height="27" viewBox="0 0 28 27" fill="none" xmlns="http://www.w3.org/2000/svg">
<rect x="0.599609" width="27" height="27" rx="2.16" fill="#E5EEFB"/>
<path d="M20.3177 4.76273L20.8881 8.4503L24.1702 10.1603L22.5151 13.504L24.1795 16.8477L20.8694 18.5577L20.299 22.2453L16.6616 21.6625L14.0715 24.2992L11.472 21.6243L7.86265 22.2357L7.28291 18.5195L4.01953 16.819L5.68395 13.4753L4.02888 10.1603L7.31096 8.4312L7.88135 4.77228L11.5001 5.38369L14.0995 2.69922L16.6897 5.34548L20.3177 4.76273ZM11.7619 8.72735C11.3899 8.72735 11.0331 8.87832 10.7701 9.14706C10.507 9.4158 10.3593 9.78029 10.3593 10.1603C10.3593 10.5404 10.507 10.9049 10.7701 11.1736C11.0331 11.4424 11.3899 11.5933 11.7619 11.5933C12.1339 11.5933 12.4906 11.4424 12.7537 11.1736C13.0167 10.9049 13.1645 10.5404 13.1645 10.1603C13.1645 9.78029 13.0167 9.4158 12.7537 9.14706C12.4906 8.87832 12.1339 8.72735 11.7619 8.72735ZM16.4372 15.4147C16.0652 15.4147 15.7084 15.5656 15.4454 15.8344C15.1824 16.1031 15.0346 16.4676 15.0346 16.8477C15.0346 17.2277 15.1824 17.5922 15.4454 17.8609C15.7084 18.1297 16.0652 18.2806 16.4372 18.2806C16.8092 18.2806 17.1659 18.1297 17.429 17.8609C17.692 17.5922 17.8398 17.2277 17.8398 16.8477C17.8398 16.4676 17.692 16.1031 17.429 15.8344C17.1659 15.5656 16.8092 15.4147 16.4372 15.4147ZM10.7426 18.2806L18.7749 10.0744L17.4564 8.72735L9.42421 16.9336L10.7426 18.2806Z" fill="#FF5650"/>
</svg>
