<svg width="28" height="27" viewBox="0 0 28 27" fill="none" xmlns="http://www.w3.org/2000/svg">
<rect x="0.599609" width="27" height="27" rx="2.16" fill="#E5EEFB"/>
<path d="M15.1825 8.20769L15.8717 7.51846C16.2163 7.17385 16.6594 7.02615 17.1025 7.02615C17.5456 7.02615 17.9886 7.17385 18.3333 7.51846L20.1056 9.29077C20.7948 9.98 20.7948 11.0631 20.1056 11.7523L19.4163 12.4415M15.1825 8.20769L7.01018 16.38C6.41941 16.9708 6.12402 17.7092 6.12402 18.4969C6.12402 19.2846 6.41941 20.0231 7.01018 20.6138C7.55172 21.1554 8.33941 21.5 9.1271 21.5M15.1825 8.20769L19.4163 12.4415M19.4163 12.4415L11.244 20.6138C10.7025 21.1554 9.91479 21.5 9.1271 21.5M6.12402 18.675V7.22308C6.12402 6.23846 6.91172 5.5 7.8471 5.5H10.3579C11.3425 5.5 12.0809 6.28769 12.0809 7.22308V11.3092M9.1271 21.5L20.3517 21.4508C21.2871 21.4508 22.0748 20.7123 22.0748 19.7277V17.2169C22.0748 16.2815 21.3363 15.4938 20.3517 15.4938H16.364" stroke="#FF5650" stroke-miterlimit="10"/>
<path d="M10.5059 18.4956C10.5059 17.7572 9.86595 17.1172 9.12749 17.1172C8.38902 17.1172 7.74902 17.7572 7.74902 18.4956C7.74902 19.2341 8.38902 19.8741 9.12749 19.8741C9.86595 19.8741 10.5059 19.2341 10.5059 18.4956Z" stroke="#FF5650" stroke-miterlimit="10"/>
</svg>
