<svg width="28" height="27" viewBox="0 0 28 27" fill="none" xmlns="http://www.w3.org/2000/svg">
<rect x="0.599609" width="27" height="27" rx="2.16" fill="#E5EEFB"/>
<circle cx="14.0998" cy="13.4992" r="10.8" stroke="#D8E2EF" stroke-width="1.62"/>
<path d="M9.56191 11.3137L10.8117 13.3914L12.0773 11.3137H13.2217L11.3549 14.1297L13.2797 17.0195H12.1512L10.8328 14.8785L9.51445 17.0195H8.38066L10.3002 14.1297L8.43867 11.3137H9.56191ZM15.5789 12.7006H16.275C16.616 12.7006 16.8973 12.6443 17.1187 12.5318C17.3437 12.4158 17.5107 12.2594 17.6197 12.0625C17.7322 11.8621 17.7885 11.6371 17.7885 11.3875C17.7885 11.0922 17.7393 10.8443 17.6408 10.6439C17.5424 10.4436 17.3947 10.2924 17.1979 10.1904C17.001 10.0885 16.7514 10.0375 16.449 10.0375C16.1748 10.0375 15.9322 10.092 15.7213 10.201C15.5139 10.3064 15.3504 10.4576 15.2309 10.6545C15.1148 10.8514 15.0568 11.0834 15.0568 11.3506H14.0812C14.0812 10.9604 14.1797 10.6053 14.3766 10.2854C14.5734 9.96543 14.8494 9.71055 15.2045 9.5207C15.5631 9.33086 15.9779 9.23594 16.449 9.23594C16.9131 9.23594 17.3191 9.31856 17.6672 9.48379C18.0152 9.64551 18.2859 9.88809 18.4793 10.2115C18.6727 10.5314 18.7693 10.9305 18.7693 11.4086C18.7693 11.602 18.7236 11.8094 18.6322 12.0309C18.5443 12.2488 18.4055 12.4527 18.2156 12.6426C18.0293 12.8324 17.7867 12.9889 17.4879 13.1119C17.1891 13.2314 16.8305 13.2912 16.4121 13.2912H15.5789V12.7006ZM15.5789 13.5021V12.9168H16.4121C16.9008 12.9168 17.3051 12.9748 17.625 13.0908C17.9449 13.2068 18.1963 13.3615 18.3791 13.5549C18.5654 13.7482 18.6955 13.9609 18.7693 14.193C18.8467 14.4215 18.8854 14.65 18.8854 14.8785C18.8854 15.2371 18.8238 15.5553 18.7008 15.833C18.5812 16.1107 18.4107 16.3463 18.1893 16.5396C17.9713 16.733 17.7146 16.8789 17.4193 16.9773C17.124 17.0758 16.8023 17.125 16.4543 17.125C16.1203 17.125 15.8057 17.0775 15.5104 16.9826C15.2186 16.8877 14.9602 16.7506 14.7352 16.5713C14.5102 16.3885 14.3344 16.1652 14.2078 15.9016C14.0812 15.6344 14.018 15.3303 14.018 14.9893H14.9936C14.9936 15.2564 15.0516 15.4902 15.1676 15.6906C15.2871 15.891 15.4559 16.0475 15.6738 16.16C15.8953 16.2689 16.1555 16.3234 16.4543 16.3234C16.7531 16.3234 17.0098 16.2725 17.2242 16.1705C17.4422 16.065 17.6092 15.9068 17.7252 15.6959C17.8447 15.485 17.9045 15.2195 17.9045 14.8996C17.9045 14.5797 17.8377 14.3178 17.7041 14.1139C17.5705 13.9064 17.3807 13.7535 17.1346 13.6551C16.892 13.5531 16.6055 13.5021 16.275 13.5021H15.5789Z" fill="#FF5650"/>
</svg>
