<svg width="75" height="27" viewBox="0 0 75 27" fill="none" xmlns="http://www.w3.org/2000/svg">
<g clip-path="url(#clip0_2001_350)">
<path d="M71.3582 0H3.70306C1.98907 0 0.599609 1.38946 0.599609 3.10345V23.8966C0.599609 25.6105 1.98907 27 3.70306 27H71.3582C73.0722 27 74.4617 25.6105 74.4617 23.8966V3.10345C74.4617 1.38946 73.0722 0 71.3582 0Z" fill="#E5EEFB"/>
<mask id="mask0_2001_350" style="mask-type:luminance" maskUnits="userSpaceOnUse" x="6" y="6" width="63" height="15">
<path d="M68.2539 6.20312H6.80566V20.7893H68.2539V6.20312Z" fill="white"/>
</mask>
<g mask="url(#mask0_2001_350)">
<path d="M14.6557 20.6273C18.5592 20.6273 21.7236 17.4753 21.7236 13.5871C21.7236 9.69889 18.5592 6.54688 14.6557 6.54688C10.7523 6.54688 7.58789 9.69889 7.58789 13.5871C7.58789 17.4753 10.7523 20.6273 14.6557 20.6273Z" fill="#FDD602"/>
<path d="M65.2235 6.25356L64.9619 6.294L64.978 6.37764C65.01 6.53138 65.1248 6.7391 65.2369 6.8389C65.6909 7.2543 66.6545 7.19226 66.9748 6.7256C67.0496 6.61769 67.1272 6.41811 67.1272 6.33987C67.1272 6.2994 67.0872 6.28593 66.9081 6.26163C66.7855 6.24276 66.6517 6.22389 66.6064 6.21579C66.5316 6.20229 66.5236 6.21039 66.4758 6.32637C66.4063 6.50171 66.2675 6.59072 66.0646 6.59072C65.8377 6.59072 65.672 6.48284 65.6133 6.2994C65.5814 6.20229 65.5627 6.19959 65.2235 6.25356Z" fill="#111111"/>
<path d="M36.8535 6.62197V6.98613H37.2942H37.7346V6.62197V6.25781H37.2942H36.8535V6.62197Z" fill="#111111"/>
<path d="M12.808 6.34339C10.9312 6.51871 9.23872 7.55721 8.1068 9.22153C6.57975 11.4739 6.37154 14.5138 7.57819 16.9819C8.47788 18.8243 10.0209 20.1433 11.8202 20.6072C12.5117 20.788 12.4342 20.7826 14.6287 20.7934C16.0089 20.7988 16.7137 20.7934 16.8979 20.7718C18.0672 20.6369 19.0897 20.1945 20.008 19.4258C20.6754 18.8647 21.3135 18.0178 21.7139 17.1519C22.4214 15.6306 22.6483 13.7747 22.3413 11.9944C21.8714 9.25387 20.0988 7.13372 17.7602 6.51601C17.0581 6.33259 17.0501 6.33259 14.9491 6.32449C13.9079 6.32179 12.9442 6.32989 12.808 6.34339ZM14.3137 7.3765C15.1493 7.55451 15.8994 7.91057 16.5615 8.44467C18.6545 10.1278 19.4581 13.1651 18.5237 15.8652C18.3929 16.2483 18.0752 16.8956 17.8536 17.2382C17.2343 18.1904 16.4441 18.8971 15.4963 19.353C13.43 20.3375 11.0327 19.825 9.42558 18.0501C8.58197 17.1222 8.03204 15.938 7.82113 14.6082C7.76241 14.2441 7.73839 13.2568 7.77842 12.863C8.05072 10.1872 9.79399 8.01308 12.1406 7.42234C12.5651 7.31446 12.8534 7.28479 13.4407 7.29826C13.8999 7.30636 14.0414 7.31983 14.3137 7.3765ZM17.1862 7.3684C18.6118 7.63275 19.8932 8.60919 20.6674 10.0227C20.7956 10.2573 20.9958 10.6862 21.0332 10.813L21.0518 10.8723L20.2216 10.8669L19.3913 10.8588L19.3112 10.6565C19.1751 10.3059 18.8627 9.69896 18.6492 9.36987C18.1152 8.54715 17.544 7.95914 16.671 7.33333C16.6042 7.28479 16.6069 7.28479 16.7511 7.30096C16.8312 7.30906 17.0287 7.33873 17.1862 7.3684ZM21.3668 11.954C21.4229 12.2156 21.4763 12.5852 21.4923 12.8333L21.511 13.0842H20.6834H19.8532L19.8372 12.9008C19.8105 12.6418 19.7464 12.1833 19.7037 11.9837L19.669 11.8164H20.5046H21.3375L21.3668 11.954ZM21.4923 14.3115C21.4763 14.5462 21.3882 15.1342 21.3535 15.2475C21.3402 15.2934 21.2761 15.2961 20.5126 15.2961C19.8718 15.2961 19.6877 15.288 19.6877 15.261C19.6877 15.2448 19.7063 15.1315 19.7277 15.0128C19.7651 14.8213 19.8478 14.1794 19.8478 14.0903C19.8478 14.0633 20.0294 14.0553 20.6781 14.0553H21.511L21.4923 14.3115ZM21.0492 16.2644C21.0492 16.3049 20.8676 16.7176 20.7421 16.9657C20.3551 17.7237 19.725 18.4709 19.071 18.9457C18.7693 19.1641 18.1126 19.5013 17.7708 19.6119C17.4692 19.709 17.0768 19.7927 16.8045 19.8169L16.6042 19.8331L16.8178 19.682C17.293 19.353 17.8296 18.8432 18.2194 18.3603C18.6171 17.864 19.079 17.0656 19.3139 16.4613L19.402 16.2402H20.2242C20.7021 16.2402 21.0492 16.2509 21.0492 16.2644Z" fill="#111111"/>
<path d="M12.4722 10.9062C12.3147 11.1005 10.5474 13.3609 10.4673 13.4661L10.3926 13.5659L11.4658 14.9362C12.0557 15.6888 12.555 16.3038 12.5737 16.3038C12.595 16.3011 12.7659 16.1743 12.9581 16.0205L13.3025 15.7427L13.177 15.5781C13.1049 15.4891 12.8113 15.1115 12.5229 14.742L11.9944 14.0676L13.9672 14.0541L15.9374 14.0406L15.9454 13.5605L15.9508 13.0831H13.9752C12.8887 13.0831 11.9997 13.075 11.9997 13.0669C11.9997 13.0588 12.1545 12.8538 12.3414 12.6164C12.5309 12.3763 12.8246 12.0014 12.9955 11.7829L13.3051 11.3891L12.9341 11.0897L12.563 10.793L12.4722 10.9062Z" fill="#111111"/>
<path d="M30.412 7.39197C30.1851 7.41894 29.8941 7.50797 29.6992 7.60775C29.5471 7.68599 29.2187 7.92337 29.2187 7.95574C29.2187 7.96381 29.3255 8.07982 29.4563 8.21199L29.6912 8.44934L29.822 8.34687C30.1771 8.07442 30.5962 7.98271 30.986 8.09328C31.1916 8.15265 31.3331 8.35764 31.2743 8.51408C31.2236 8.64896 31.0607 8.70829 30.5215 8.78383C29.6832 8.89981 29.3121 9.12369 29.1786 9.59036C29.1199 9.78997 29.1359 10.1029 29.216 10.2863C29.2908 10.4589 29.4803 10.6585 29.6512 10.7421C30.1557 10.9903 30.8765 10.8662 31.2743 10.4643L31.3971 10.3402L31.4425 10.467C31.5306 10.7179 31.7548 10.8446 32.1099 10.8446C32.3795 10.8446 32.369 10.8608 32.369 10.4643V10.1164H32.2675C32.2113 10.1164 32.1393 10.0975 32.1074 10.0732C32.0484 10.0327 32.0484 10.0273 32.0484 9.2316C32.0484 8.35764 32.0245 8.15532 31.9044 7.94764C31.8191 7.79929 31.632 7.62935 31.4639 7.54301C31.2103 7.41357 30.7671 7.34883 30.412 7.39197ZM31.269 9.42041C31.2556 9.71983 31.2023 9.84121 31.018 10.0058C30.7884 10.2108 30.3747 10.2863 30.1317 10.1676C29.9208 10.0624 29.8541 9.77377 29.9929 9.57686C30.0596 9.48245 30.2438 9.40424 30.5268 9.3476C30.954 9.26667 31.1542 9.2208 31.1942 9.19653C31.2716 9.15069 31.2797 9.17496 31.269 9.42041Z" fill="#111111"/>
<path d="M39.7392 7.3942C39.0639 7.48321 38.5832 7.86894 38.3644 8.49745C38.2896 8.71053 38.2843 8.7564 38.2843 9.10436C38.2815 9.52785 38.3163 9.70587 38.4631 10.0053C38.5674 10.2211 38.8104 10.4881 39.013 10.6122C39.0959 10.6635 39.2588 10.739 39.3761 10.7794C39.571 10.8496 39.6219 10.855 39.9903 10.855C40.3612 10.8577 40.4068 10.8496 40.6042 10.7821C40.8925 10.6796 41.0874 10.5529 41.2742 10.3505C41.5839 10.0188 41.7202 9.63576 41.7174 9.11786C41.7174 8.7564 41.6559 8.48125 41.52 8.2196C41.4076 8.00381 41.106 7.69902 40.8925 7.58572C40.5883 7.42387 40.1076 7.34296 39.7392 7.3942ZM40.4279 8.16026C40.6923 8.30593 40.8366 8.55138 40.8844 8.93981C40.9673 9.61686 40.6336 10.1402 40.0862 10.1887C39.5176 10.2427 39.1387 9.86231 39.104 9.21226C39.0797 8.78607 39.1865 8.47588 39.4323 8.26006C39.6058 8.10362 39.7259 8.06585 40.0303 8.07395C40.2519 8.07935 40.3025 8.09012 40.4279 8.16026Z" fill="#111111"/>
<path d="M47.1457 7.39755C46.7615 7.44072 46.345 7.62143 46.0834 7.85341L45.9739 7.95052L46.1954 8.19867C46.3183 8.33355 46.4304 8.44416 46.4437 8.44416C46.4571 8.44416 46.5238 8.39559 46.5933 8.33895C46.7562 8.20137 46.903 8.12853 47.1246 8.0773C47.5755 7.96939 48.0401 8.14743 48.0401 8.42796C48.0401 8.62217 47.8747 8.69771 47.2261 8.79481C46.62 8.88382 46.3208 9.0079 46.0992 9.26415C45.9524 9.43139 45.8938 9.61211 45.8966 9.88726C45.8991 10.3701 46.1635 10.7046 46.6439 10.8314C46.9617 10.915 47.4263 10.8556 47.7279 10.6911C47.8027 10.6479 47.9253 10.5589 48.0029 10.4861C48.0777 10.4159 48.1469 10.3593 48.155 10.3593C48.1602 10.3593 48.1736 10.3917 48.1816 10.4321C48.2059 10.5589 48.3151 10.6938 48.4408 10.7558C48.5795 10.826 48.8331 10.861 49.0118 10.834L49.1347 10.8152V10.4645V10.1165H49.0199C48.793 10.1165 48.8036 10.1597 48.785 9.12657C48.7744 8.35512 48.7635 8.19597 48.7263 8.09347C48.6168 7.80755 48.3765 7.58366 48.0563 7.47309C47.9148 7.42452 47.5088 7.35978 47.3996 7.36788C47.3782 7.37058 47.2633 7.38405 47.1457 7.39755ZM48.0134 9.40712C48.0134 9.68494 47.9653 9.81172 47.8133 9.96817C47.6584 10.1219 47.4554 10.2055 47.1994 10.219C46.9483 10.2298 46.8363 10.1867 46.7373 10.0356C46.6839 9.9574 46.6762 9.91423 46.6839 9.78745C46.7029 9.50963 46.8307 9.42869 47.4288 9.31809C47.6398 9.28035 47.8505 9.23178 47.8933 9.21291C47.9386 9.19401 47.9815 9.17514 47.9948 9.17514C48.0054 9.17244 48.0134 9.27765 48.0134 9.40712Z" fill="#111111"/>
<path d="M25.5342 9.1312V10.8171H25.9346H26.3351V10.1427V9.46839H27.0559H27.7767V10.1427V10.8171H28.1905H28.6043V9.1312V7.44531H28.1905H27.7767V8.07922V8.7131H27.0559H26.3351V8.07922V7.44531H25.9346H25.5342V9.1312Z" fill="#111111"/>
<path d="M32.9023 9.13117V10.8171H34.2505H35.5986V11.2082V11.5993H35.9859H36.3729V10.844V10.0914L36.1538 10.0834L35.9322 10.0753L35.9245 8.75894L35.9189 7.44531H35.5186H35.1182V8.76704V10.0888H34.4106H33.7033V8.76704V7.44531H33.3027H32.9023V9.13117Z" fill="#111111"/>
<path d="M36.8809 9.1312V10.8171H37.2949H37.7085V9.1312V7.44531H37.2949H36.8809V9.1312Z" fill="#111111"/>
<path d="M42.2734 9.1312V10.8171H42.6871H43.1008V10.1427V9.46839H43.8217H44.5424V10.1427V10.8171H44.943H45.3434V9.1312V7.44531H44.943H44.5424V8.07922V8.7131H43.8217H43.1008V8.07922V7.44531H42.6871H42.2734V9.1312Z" fill="#111111"/>
<path d="M49.9345 8.39478C49.9317 9.40092 49.9078 9.82172 49.8436 9.95119C49.7955 10.0402 49.6834 10.0888 49.518 10.0888H49.4004V10.4502V10.8144L49.55 10.8333C49.721 10.8548 49.9932 10.8306 50.1266 10.7847C50.3777 10.6984 50.5325 10.5096 50.6312 10.1697C50.6846 9.98356 50.6899 9.89992 50.7007 9.06913L50.7141 8.1736H51.3118H51.9098V9.49533V10.8171H52.3238H52.7375V9.13117V7.44531H51.336H49.9345V8.39478Z" fill="#111111"/>
<path d="M53.5117 9.1312V10.8171H54.4272C55.4203 10.8171 55.578 10.8009 55.8343 10.6687C56.0398 10.5635 56.2161 10.3855 56.3039 10.1886C56.3734 10.0375 56.3815 9.99436 56.3815 9.72464C56.3815 9.50076 56.3709 9.39825 56.3334 9.30921C56.2185 9.02599 55.9998 8.82371 55.6872 8.7104C55.5457 8.65646 55.4604 8.64836 54.9213 8.63756L54.3124 8.62679V8.03605V7.44531H53.9121H53.5117V9.1312ZM55.3269 9.31191C55.6019 9.43332 55.6767 9.83252 55.4604 10.0348C55.3431 10.1454 55.2149 10.1697 54.7422 10.1697H54.3124V9.70844V9.24717L54.7742 9.25797C55.1081 9.26607 55.2602 9.28224 55.3269 9.31191Z" fill="#111111"/>
<path d="M56.8486 9.1312V10.8171H57.2493H57.6496V10.1427V9.46839H58.3706H59.0912V10.1427V10.8171H59.4915H59.8922V9.1312V7.44531H59.4915H59.0912V8.07922V8.7131H58.3706H57.6496V8.07922V7.44531H57.2493H56.8486V9.1312Z" fill="#111111"/>
<path d="M60.667 9.1312V10.8171H61.0757L61.4813 10.8144L62.2156 9.70844L62.9496 8.59979L62.9576 9.70844L62.9629 10.8171H63.3502H63.7372V9.1312V7.44531H63.3313L62.9229 7.44801L62.2023 8.54316L61.4813 9.6383L61.4733 8.54046L61.468 7.44531H61.0676H60.667V9.1312Z" fill="#111111"/>
<path d="M64.5117 9.1312V10.8171H64.9201L65.3258 10.8144L66.06 9.70574L66.794 8.59713L66.8021 9.70574L66.8073 10.8171H67.1946H67.5816V9.1312V7.44531H67.1757L66.7673 7.44801L66.0467 8.54316L65.3258 9.6383L65.3177 8.54046L65.3124 7.44531H64.9121H64.5117V9.1312Z" fill="#111111"/>
<path d="M53.1107 11.9083V12.2698L52.1577 12.2833C51.1379 12.2995 50.9777 12.3157 50.5479 12.4532C49.3947 12.8201 48.6579 13.6967 48.423 14.9861C48.3777 15.2208 48.3721 15.4015 48.3721 16.4157C48.3721 17.4164 48.3777 17.6106 48.4202 17.8319C48.6818 19.2372 49.6482 20.1759 51.0687 20.4079C51.3837 20.4591 52.0484 20.4591 52.3445 20.4079C53.2308 20.2514 53.9865 19.7713 54.4402 19.078C54.7127 18.6572 54.8487 18.2553 54.8968 17.7401C55.0411 16.2242 54.0157 14.9051 52.486 14.6354C52.1791 14.5815 51.5863 14.5815 51.2794 14.6354C50.6121 14.7541 50.1047 15.0077 49.6963 15.4285L49.4989 15.6308L49.5148 15.2963C49.5415 14.7352 49.6724 14.3819 49.9793 14.0555C50.1637 13.8559 50.3583 13.7291 50.6227 13.632C51.0178 13.4863 51.0606 13.4836 52.7318 13.4701L54.2854 13.4566V12.5018V11.5469H53.6982H53.1107V11.9083ZM52.1738 15.7279C52.8038 15.8816 53.327 16.3537 53.5167 16.9417C53.5939 17.1872 53.6129 17.67 53.5539 17.9263C53.4766 18.25 53.3404 18.49 53.084 18.749C52.7476 19.0861 52.4435 19.2453 51.9895 19.3181C51.7545 19.3559 51.2902 19.3343 51.0953 19.2804C50.4439 19.0942 49.9874 18.6707 49.7711 18.0557C49.691 17.8345 49.6724 17.3436 49.7311 17.0901C49.8859 16.4292 50.4197 15.8978 51.1031 15.7279C51.3942 15.6577 51.8749 15.6577 52.1738 15.7279Z" fill="#111111"/>
<path d="M34.5039 13.9119C33.1052 14.063 32.104 15.0368 31.8477 16.4961C31.789 16.8306 31.789 17.4941 31.8477 17.8448C32.0826 19.2339 32.9528 20.1376 34.2904 20.3857C34.6402 20.4477 35.3797 20.4477 35.7453 20.383C36.2475 20.2913 36.7332 20.1025 37.1068 19.8462C37.3098 19.7087 37.5528 19.4956 37.6381 19.3823L37.7048 19.296L37.3073 18.9399C37.0857 18.7457 36.8908 18.5784 36.8694 18.5704C36.8508 18.5623 36.8027 18.5946 36.7651 18.6405C36.4957 18.9615 36.0898 19.1908 35.5852 19.3068C35.3183 19.3661 34.7069 19.3661 34.4639 19.3068C33.7886 19.1368 33.3001 18.6297 33.1158 17.9014C33.0866 17.7827 33.0624 17.6586 33.0624 17.6236V17.5615H35.4759H37.8864L37.905 17.459C37.9826 16.987 37.8305 16.0618 37.5928 15.5547C37.4299 15.2094 37.3073 15.026 37.0534 14.7616C36.6103 14.2923 36.0284 14.0091 35.3236 13.92C35.1181 13.8958 34.7069 13.8904 34.5039 13.9119ZM35.3717 15.0125C35.8654 15.1447 36.2714 15.5142 36.4796 16.0213C36.541 16.1751 36.6397 16.5122 36.6397 16.5716C36.6397 16.5824 35.8363 16.5905 34.8537 16.5905H33.0652L33.1158 16.4044C33.2334 15.9809 33.3827 15.7003 33.6232 15.4576C33.8767 15.2013 34.2104 15.0314 34.5815 14.972C34.7817 14.9397 35.174 14.9613 35.3717 15.0125Z" fill="#111111"/>
<path d="M58.2699 13.9259C57.1167 14.077 56.2114 14.8188 55.8353 15.9193C55.6723 16.4048 55.6028 17.1493 55.6723 17.7104C55.8272 18.9458 56.5131 19.8548 57.589 20.2432C57.9574 20.3781 58.3367 20.4348 58.8518 20.4348C59.5538 20.4321 60.1171 20.308 60.6245 20.0463C60.9581 19.8737 61.4413 19.4934 61.5214 19.345C61.5428 19.3045 61.4761 19.2344 61.1344 18.9296C60.91 18.7273 60.7127 18.5628 60.6965 18.5628C60.6804 18.5628 60.6484 18.5924 60.6245 18.6302C60.5444 18.7516 60.2319 18.9943 60.0131 19.1049C59.7301 19.2452 59.4899 19.3126 59.124 19.3504C58.139 19.4502 57.3622 19.0132 57.0524 18.1878C56.9829 18.0071 56.9029 17.6969 56.9029 17.6106C56.9029 17.5674 57.0363 17.5647 59.3164 17.5647H61.7324L61.7511 17.4379C61.7778 17.2545 61.7458 16.6449 61.6949 16.3779C61.4575 15.1478 60.7179 14.3062 59.6128 14.0095C59.2149 13.9017 58.6889 13.8693 58.2699 13.9259ZM59.2121 15.0157C59.5032 15.0912 59.7034 15.2099 59.9355 15.4446C60.1093 15.6199 60.1733 15.7089 60.2614 15.8923C60.3576 16.0973 60.4802 16.4669 60.4802 16.5586C60.4802 16.5855 60.1227 16.5936 58.705 16.5936C56.6707 16.5936 56.887 16.6287 56.9857 16.3077C57.2126 15.5605 57.7225 15.0912 58.4381 14.9725C58.6197 14.9428 59.0172 14.9644 59.2121 15.0157Z" fill="#111111"/>
<path d="M25.8008 17.1695V20.3389H26.4281H27.0555V19.0037V17.6685H28.2702H29.4849V18.5101C29.4849 19.4272 29.5036 19.5971 29.6344 19.8183C29.8533 20.1959 30.203 20.3389 30.9158 20.3389H31.2735L31.2682 19.7778L31.2602 19.2195L31.0707 19.206C30.7049 19.179 30.7129 19.2141 30.7129 17.7494V16.5625H30.1523C29.8453 16.5625 29.5917 16.5571 29.5917 16.5517C29.5917 16.5463 29.936 15.9853 30.3552 15.3056C30.777 14.6231 31.1267 14.0513 31.132 14.0324C31.1427 14.0081 31.0012 14 30.4833 14H29.8186L29.0818 15.2489L28.345 16.4951L27.7016 16.5032L27.0555 16.5086V15.2543V14H26.4281H25.8008V17.1695Z" fill="#111111"/>
<path d="M38.748 17.1695V20.3389H43.006H47.2642V17.1695V14H46.6367H46.0095V16.603V19.206H44.8215H43.6335V16.603V14H43.006H42.3788V16.603V19.206H41.1908H40.0028V16.603V14H39.3753H38.748V17.1695Z" fill="#111111"/>
<path d="M62.8027 17.1695V20.3389H63.4303H64.0575V19.0037V17.6685H65.2721H66.4868V18.502C66.4868 18.9578 66.5002 19.3975 66.5135 19.4757C66.5778 19.8156 66.7646 20.0692 67.0554 20.2067C67.2717 20.3065 67.5175 20.3416 67.9284 20.3335L68.2623 20.3254V19.7724V19.2195L68.0727 19.206C67.7068 19.179 67.7149 19.2141 67.7149 17.7494V16.5625H67.1544C66.8471 16.5625 66.5936 16.5571 66.5936 16.549C66.5936 16.5436 66.9434 15.9718 67.3679 15.284C67.7949 14.5934 68.1419 14.0216 68.1419 14.0135C68.1419 14.0054 67.843 14 67.4799 14H66.818L66.0784 15.2543L65.3364 16.5086H64.6983H64.0575V15.2543V14H63.4303H62.8027V17.1695Z" fill="#111111"/>
</g>
</g>
<defs>
<clipPath id="clip0_2001_350">
<rect width="73.8621" height="27" fill="white" transform="translate(0.599609)"/>
</clipPath>
</defs>
</svg>
