<svg width="44" height="44" viewBox="0 0 44 44" fill="none" xmlns="http://www.w3.org/2000/svg">
<rect width="44" height="44" rx="22" fill="#D8E2EF"/>
<path d="M30.5091 13.1423C29.9634 12.6396 27.7551 11.037 22.8315 11.0156C22.8315 11.0156 17.0272 10.6676 14.2002 13.2625C12.6277 14.835 12.0735 17.1421 12.0133 19.9992C11.9532 22.8563 11.8801 28.2095 17.04 29.6617H17.0443L17.04 31.8786C17.04 31.8786 17.0057 32.7765 17.5986 32.957C18.3118 33.1804 18.7328 32.4972 19.4159 31.7626C19.7897 31.3587 20.3053 30.7658 20.6962 30.3147C24.2278 30.6112 26.9388 29.9323 27.2481 29.8335C27.9613 29.6015 31.9956 29.086 32.6486 23.7327C33.3275 18.2076 32.3221 14.719 30.5091 13.1423ZM31.1063 23.3289C30.552 27.7971 27.2825 28.0806 26.681 28.2739C26.4232 28.3556 24.0388 28.9485 21.0442 28.7551C21.0442 28.7551 18.8101 31.4489 18.1141 32.1492C17.8864 32.3769 17.6372 32.3555 17.6415 31.9043C17.6415 31.6079 17.6587 28.2224 17.6587 28.2224C17.6544 28.2224 17.6544 28.2224 17.6587 28.2224C13.285 27.0108 13.5428 22.4524 13.5901 20.0679C13.6373 17.6835 14.0885 15.7286 15.4203 14.414C17.8134 12.2443 22.7413 12.5665 22.7413 12.5665C26.9044 12.5837 28.8979 13.8383 29.3619 14.2593C30.8957 15.574 31.6777 18.7189 31.1063 23.3289ZM25.1343 19.8574C25.1515 20.2269 24.5973 20.2527 24.5801 19.8832C24.5329 18.938 24.0903 18.4783 23.1795 18.4267C22.81 18.4053 22.8444 17.851 23.2096 17.8725C24.4083 17.937 25.0742 18.6244 25.1343 19.8574ZM26.0065 20.3429C26.0495 18.5213 24.9109 17.0949 22.7499 16.9359C22.3847 16.9101 22.4234 16.3559 22.7885 16.3817C25.2804 16.5621 26.608 18.2764 26.5607 20.3558C26.5564 20.7253 25.9979 20.7081 26.0065 20.3429ZM28.0258 20.9186C28.0301 21.2881 27.4716 21.2924 27.4716 20.9229C27.4458 17.4214 25.1129 15.5138 22.2816 15.4923C21.9164 15.4881 21.9164 14.9381 22.2816 14.9381C25.448 14.9596 27.9957 17.1464 28.0258 20.9186ZM27.5403 25.1333V25.1419C27.0763 25.9582 26.2084 26.8605 25.3148 26.5726L25.3062 26.5597C24.3997 26.3062 22.2644 25.2064 20.9153 24.1323C20.2193 23.5823 19.5835 22.9336 19.0937 22.3106C18.6512 21.7564 18.2044 21.0991 17.7704 20.3085C16.8553 18.6544 16.6534 17.9155 16.6534 17.9155C16.3655 17.0218 17.2635 16.154 18.0841 15.69H18.0926C18.4879 15.4838 18.866 15.5525 19.1195 15.8575C19.1195 15.8575 19.6522 16.4934 19.8799 16.807C20.0947 17.0992 20.3826 17.5675 20.533 17.8296C20.795 18.2979 20.6318 18.7747 20.374 18.9724L19.8584 19.3848C19.5964 19.5953 19.6307 19.9863 19.6307 19.9863C19.6307 19.9863 20.3955 22.8777 23.2526 23.6081C23.2526 23.6081 23.6435 23.6425 23.854 23.3804L24.2665 22.8649C24.4641 22.6071 24.941 22.4438 25.4093 22.7059C26.0409 23.0625 26.8443 23.6167 27.377 24.1194C27.6778 24.3643 27.7465 24.7381 27.5403 25.1333Z" fill="#16489F"/>
</svg>
